<svg xmlns="http://www.w3.org/2000/svg" viewBox="0 0 940 585" role="img" aria-labelledby="title desc">
  <title id="title">2020 Presidential Margin by County</title>
  <desc id="desc">Biden margin minus Trump margin, shown to set the federal-partisan floor under the race. County boundaries from public U.S. county GeoJSON; issue scores are modelled for a New Campaign Trail scenario.</desc>
  <style>
    .bg { fill: #f8fafc; }
    .title { font: 700 24px system-ui, -apple-system, BlinkMacSystemFont, "Segoe UI", sans-serif; fill: #111827; }
    .subtitle { font: 14px system-ui, -apple-system, BlinkMacSystemFont, "Segoe UI", sans-serif; fill: #4b5563; }
    .legend { font: 12px system-ui, -apple-system, BlinkMacSystemFont, "Segoe UI", sans-serif; fill: #374151; }
    .source { font: 11px system-ui, -apple-system, BlinkMacSystemFont, "Segoe UI", sans-serif; fill: #6b7280; }
    path:hover { stroke: #111827; stroke-width: 1.8; }
  </style>
  <rect class="bg" x="0" y="0" width="940" height="585"/>
  <text class="title" x="24" y="34">2020 Presidential Margin by County</text>
  <text class="subtitle" x="24" y="56">Biden margin minus Trump margin, shown to set the federal-partisan floor under the race.</text>
  <g aria-label="Kentucky counties">
    <path id="ky-21001" data-county="Adair" d="M540.95,293.52 L553.65,299.78 L555.24,308.11 L536.18,330.31 L533.10,338.73 L507.32,337.19 L498.51,317.10 L515.71,310.19 L518.94,307.36 L523.41,301.69 L540.95,293.52 Z" fill="#c14756" stroke="#ffffff" stroke-width="0.85" vector-effect="non-scaling-stroke"><title>Adair County: -67.1 pts; Beshear 31.94%, Cameron 68.06%; 2020 Biden margin -67.10</title></path><path id="ky-21003" data-county="Allen" d="M445.77,373.53 L439.16,373.30 L439.12,373.30 L438.50,373.25 L433.54,372.88 L433.39,372.89 L419.83,372.25 L418.97,372.20 L418.90,372.20 L417.64,372.11 L417.62,372.10 L417.30,372.08 L416.94,372.07 L403.93,371.14 L394.74,370.93 L395.40,356.19 L423.44,337.68 L445.71,362.47 L445.77,373.53 Z" fill="#c3505f" stroke="#ffffff" stroke-width="0.85" vector-effect="non-scaling-stroke"><title>Allen County: -63.48 pts; Beshear 29.60%, Cameron 70.40%; 2020 Biden margin -63.48</title></path><path id="ky-21005" data-county="Anderson" d="M542.40,224.62 L540.63,215.93 L548.40,208.25 L557.54,197.48 L576.17,198.90 L584.22,216.13 L567.62,218.15 L556.74,225.34 L542.40,224.62 Z" fill="#d07a85" stroke="#ffffff" stroke-width="0.85" vector-effect="non-scaling-stroke"><title>Anderson County: -47.63 pts; Beshear 45.34%, Cameron 54.66%; 2020 Biden margin -47.63</title></path><path id="ky-21007" data-county="Ballard" d="M79.22,336.51 L75.48,332.03 L71.52,329.55 L70.68,328.60 L70.05,327.48 L69.64,325.56 L69.77,324.50 L70.43,322.66 L70.88,321.94 L71.33,321.23 L80.90,310.51 L86.21,306.14 L90.94,303.61 L93.01,303.11 L94.94,302.97 L98.86,303.54 L112.64,335.32 L92.36,339.38 L79.22,336.51 Z" fill="#c65a67" stroke="#ffffff" stroke-width="0.85" vector-effect="non-scaling-stroke"><title>Ballard County: -59.9 pts; Beshear 36.28%, Cameron 63.72%; 2020 Biden margin -59.90</title></path><path id="ky-21009" data-county="Barren" d="M429.69,322.77 L434.29,323.69 L436.38,310.32 L453.99,312.53 L473.01,310.02 L473.60,348.54 L445.71,362.47 L423.44,337.68 L429.69,322.77 Z" fill="#d07a85" stroke="#ffffff" stroke-width="0.85" vector-effect="non-scaling-stroke"><title>Barren County: -47.49 pts; Beshear 41.78%, Cameron 58.21%; 2020 Biden margin -47.49</title></path><path id="ky-21011" data-county="Bath" d="M711.72,211.53 L711.41,211.48 L711.05,212.10 L710.67,212.22 L710.24,211.91 L709.65,211.80 L709.65,211.61 L709.20,211.38 L708.93,211.72 L708.63,211.79 L708.42,211.45 L708.09,211.78 L707.67,211.81 L707.27,212.15 L707.56,212.43 L707.02,213.00 L706.76,212.96 L706.15,213.48 L705.87,212.77 L691.56,196.60 L680.23,190.08 L695.20,177.86 L695.43,177.78 L709.86,178.29 L719.11,192.56 L720.01,191.70 L720.44,190.62 L736.44,206.68 L726.85,211.25 L711.72,211.53 Z" fill="#d48690" stroke="#ffffff" stroke-width="0.85" vector-effect="non-scaling-stroke"><title>Bath County: -42.89 pts; Beshear 55.81%, Cameron 44.19%; 2020 Biden margin -42.89</title></path><path id="ky-21013" data-county="Bell" d="M740.88,369.25 L736.54,368.60 L733.11,369.12 L718.76,374.91 L715.72,376.77 L715.52,377.27 L713.93,378.91 L685.78,378.24 L682.66,371.91 L692.01,366.63 L701.31,355.14 L726.79,341.12 L725.80,335.12 L732.68,336.62 L733.88,337.26 L735.24,337.15 L735.19,338.93 L736.98,339.37 L737.54,340.34 L735.74,341.21 L736.26,342.20 L737.50,342.21 L734.93,352.54 L740.88,369.25 Z" fill="#c4515f" stroke="#ffffff" stroke-width="0.85" vector-effect="non-scaling-stroke"><title>Bell County: -63.23 pts; Beshear 40.24%, Cameron 59.74%; 2020 Biden margin -63.23</title></path><path id="ky-21015" data-county="Boone" d="M603.45,86.29 L604.47,86.57 L607.48,109.43 L605.41,118.51 L603.73,118.42 L600.66,119.92 L600.20,121.43 L584.83,112.21 L585.45,110.61 L585.53,109.38 L585.02,108.83 L582.24,103.44 L577.99,95.19 L574.56,91.75 L573.34,90.51 L572.39,89.15 L572.37,88.57 L573.36,87.51 L580.13,83.34 L581.42,82.92 L585.23,81.77 L587.69,79.04 L589.13,78.09 L590.34,78.00 L591.76,78.35 L593.34,79.22 L596.72,83.08 L597.30,83.51 L603.45,86.29 Z" fill="#da99a1" stroke="#ffffff" stroke-width="0.85" vector-effect="non-scaling-stroke"><title>Boone County: -35.69 pts; Beshear 43.96%, Cameron 56.03%; 2020 Biden margin -35.69</title></path><path id="ky-21017" data-county="Bourbon" d="M654.88,169.01 L663.54,180.30 L680.23,190.08 L668.20,199.11 L644.04,204.75 L632.95,199.30 L630.50,188.23 L625.71,179.39 L637.11,179.17 L654.88,169.01 Z" fill="#dfa8af" stroke="#ffffff" stroke-width="0.85" vector-effect="non-scaling-stroke"><title>Bourbon County: -30.0 pts; Beshear 53.96%, Cameron 46.04%; 2020 Biden margin -30.00</title></path><path id="ky-21019" data-county="Boyd" d="M834.21,153.29 L842.63,163.13 L842.33,163.62 L842.23,164.18 L842.43,167.72 L842.43,167.72 L842.71,168.61 L845.19,175.57 L844.86,181.66 L844.44,182.72 L843.77,183.71 L842.48,183.82 L841.39,183.61 L819.11,184.02 L821.74,170.08 L816.38,168.75 L834.21,153.29 Z" fill="#dca0a7" stroke="#ffffff" stroke-width="0.85" vector-effect="non-scaling-stroke"><title>Boyd County: -33.16 pts; Beshear 51.52%, Cameron 48.48%; 2020 Biden margin -33.16</title></path><path id="ky-21021" data-county="Boyle" d="M600.41,255.50 L583.66,263.21 L578.24,265.66 L555.67,265.97 L556.78,255.88 L557.39,250.29 L590.25,246.28 L600.41,255.50 Z" fill="#e3b6bc" stroke="#ffffff" stroke-width="0.85" vector-effect="non-scaling-stroke"><title>Boyle County: -24.69 pts; Beshear 52.89%, Cameron 47.11%; 2020 Biden margin -24.69</title></path><path id="ky-21023" data-county="Bracken" d="M672.42,122.22 L680.13,120.28 L682.09,120.24 L684.22,120.69 L688.91,122.50 L688.92,122.50 L678.63,142.97 L658.63,147.61 L652.85,147.99 L653.55,144.33 L650.67,115.52 L651.21,116.69 L652.67,118.09 L653.52,118.46 L669.26,122.23 L671.46,122.22 L672.42,122.22 Z" fill="#c55664" stroke="#ffffff" stroke-width="0.85" vector-effect="non-scaling-stroke"><title>Bracken County: -61.19 pts; Beshear 39.86%, Cameron 60.14%; 2020 Biden margin -61.19</title></path><path id="ky-21025" data-county="Breathitt" d="M780.37,282.43 L769.77,277.90 L750.19,290.25 L742.23,285.49 L730.71,290.70 L727.01,270.54 L733.69,255.03 L745.87,248.90 L765.79,251.38 L779.13,258.75 L784.43,255.77 L801.00,270.91 L787.66,268.20 L779.16,276.30 L780.37,282.43 Z" fill="#cc6e79" stroke="#ffffff" stroke-width="0.85" vector-effect="non-scaling-stroke"><title>Breathitt County: -52.36 pts; Beshear 61.17%, Cameron 38.83%; 2020 Biden margin -52.36</title></path><path id="ky-21027" data-county="Breckinridge" d="M373.46,263.73 L368.05,252.29 L363.48,236.92 L366.13,231.10 L366.98,231.22 L368.59,230.94 L372.07,229.25 L381.39,216.35 L381.42,209.35 L381.79,208.12 L382.32,207.62 L382.97,207.40 L385.42,207.25 L414.52,227.05 L425.26,236.21 L410.71,260.31 L402.39,263.92 L383.95,256.94 L373.46,263.73 Z" fill="#cc6d79" stroke="#ffffff" stroke-width="0.85" vector-effect="non-scaling-stroke"><title>Breckinridge County: -52.45 pts; Beshear 41.96%, Cameron 58.04%; 2020 Biden margin -52.45</title></path><path id="ky-21029" data-county="Bullitt" d="M487.15,203.27 L494.95,203.96 L510.01,198.73 L502.93,213.71 L483.91,232.68 L473.77,234.70 L461.99,226.78 L460.03,219.03 L450.24,212.76 L461.51,206.58 L476.73,202.38 L477.83,202.47 L487.15,203.27 Z" fill="#d07984" stroke="#ffffff" stroke-width="0.85" vector-effect="non-scaling-stroke"><title>Bullitt County: -47.99 pts; Beshear 42.96%, Cameron 57.04%; 2020 Biden margin -47.99</title></path><path id="ky-21031" data-county="Butler" d="M370.47,284.02 L371.20,283.58 L385.85,287.41 L387.97,292.27 L396.18,310.01 L370.48,308.36 L363.88,329.96 L343.83,323.31 L332.56,321.84 L338.13,319.56 L337.50,305.03 L347.14,291.50 L353.90,294.26 L370.47,284.02 Z" fill="#c4515f" stroke="#ffffff" stroke-width="0.85" vector-effect="non-scaling-stroke"><title>Butler County: -63.36 pts; Beshear 32.15%, Cameron 67.85%; 2020 Biden margin -63.36</title></path><path id="ky-21033" data-county="Caldwell" d="M231.71,285.42 L230.49,287.22 L229.49,286.99 L228.55,288.44 L230.26,288.80 L225.88,292.14 L231.24,301.65 L245.84,312.43 L242.28,327.40 L239.65,329.69 L222.80,334.62 L203.42,309.44 L197.13,308.86 L197.92,303.85 L231.71,285.42 Z" fill="#cb6975" stroke="#ffffff" stroke-width="0.85" vector-effect="non-scaling-stroke"><title>Caldwell County: -53.98 pts; Beshear 39.99%, Cameron 60.01%; 2020 Biden margin -53.98</title></path><path id="ky-21035" data-county="Calloway" d="M200.09,367.70 L200.37,369.86 L201.84,372.68 L203.07,376.52 L204.19,381.35 L204.56,383.83 L203.93,386.97 L203.74,387.38 L202.13,388.93 L202.12,388.93 L170.73,388.55 L170.13,388.54 L169.56,388.53 L159.52,388.51 L155.56,388.47 L155.28,388.49 L152.93,388.48 L150.99,388.47 L151.39,359.23 L195.37,359.60 L198.49,363.59 L200.09,367.70 Z" fill="#dda4ab" stroke="#ffffff" stroke-width="0.85" vector-effect="non-scaling-stroke"><title>Calloway County: -31.82 pts; Beshear 46.26%, Cameron 53.74%; 2020 Biden margin -31.82</title></path><path id="ky-21037" data-county="Campbell" d="M618.27,84.14 L618.74,83.96 L619.72,83.28 L626.86,84.24 L639.33,92.08 L640.11,92.71 L640.84,93.31 L641.90,94.54 L650.14,107.83 L650.41,109.32 L650.37,110.01 L628.59,117.99 L623.28,112.66 L624.76,96.05 L618.27,84.14 Z" fill="#e8c6ca" stroke="#ffffff" stroke-width="0.85" vector-effect="non-scaling-stroke"><title>Campbell County: -18.63 pts; Beshear 54.19%, Cameron 45.80%; 2020 Biden margin -18.63</title></path><path id="ky-21039" data-county="Carlisle" d="M79.23,336.51 L79.22,336.51 L92.36,339.38 L112.64,335.32 L113.00,336.17 L112.96,356.56 L76.55,355.14 L76.56,355.12 L70.02,351.89 L70.10,351.46 L70.26,349.20 L73.72,347.87 L79.23,336.51 Z" fill="#c34e5d" stroke="#ffffff" stroke-width="0.85" vector-effect="non-scaling-stroke"><title>Carlisle County: -64.29 pts; Beshear 30.33%, Cameron 69.67%; 2020 Biden margin -64.29</title></path><path id="ky-21041" data-county="Carroll" d="M551.57,142.60 L540.58,143.93 L521.22,125.75 L526.39,125.52 L528.01,125.67 L529.96,126.07 L531.40,126.76 L533.80,129.86 L535.31,131.03 L536.68,131.48 L538.11,131.95 L540.08,131.89 L542.00,131.40 L544.05,130.59 L547.78,128.06 L548.48,127.35 L557.48,123.07 L568.00,134.94 L551.57,142.60 Z" fill="#d3828c" stroke="#ffffff" stroke-width="0.85" vector-effect="non-scaling-stroke"><title>Carroll County: -44.44 pts; Beshear 47.95%, Cameron 52.05%; 2020 Biden margin -44.44</title></path><path id="ky-21043" data-county="Carter" d="M754.92,175.13 L767.90,172.81 L767.14,162.61 L775.44,153.49 L788.89,158.02 L797.47,165.82 L816.38,168.75 L821.74,170.08 L819.11,184.02 L803.78,192.07 L788.73,190.38 L776.29,181.58 L766.30,190.05 L758.98,186.19 L754.92,175.13 Z" fill="#cc6c78" stroke="#ffffff" stroke-width="0.85" vector-effect="non-scaling-stroke"><title>Carter County: -52.94 pts; Beshear 47.27%, Cameron 52.71%; 2020 Biden margin -52.94</title></path><path id="ky-21045" data-county="Casey" d="M555.24,308.11 L553.65,299.78 L540.95,293.52 L551.67,281.41 L555.67,265.97 L578.24,265.66 L577.83,279.83 L592.84,287.70 L593.09,301.98 L582.69,309.40 L571.93,316.29 L565.67,317.94 L555.24,308.11 Z" fill="#bb3747" stroke="#ffffff" stroke-width="0.85" vector-effect="non-scaling-stroke"><title>Casey County: -73.37 pts; Beshear 26.08%, Cameron 73.92%; 2020 Biden margin -73.37</title></path><path id="ky-21047" data-county="Christian" d="M285.31,371.99 L284.88,372.00 L277.08,372.05 L275.82,372.05 L274.48,372.08 L259.63,372.28 L259.41,372.28 L250.47,372.40 L250.47,372.40 L244.25,372.54 L248.29,333.88 L239.65,329.69 L242.28,327.40 L245.84,312.43 L264.49,317.58 L286.53,311.50 L295.26,321.44 L286.27,371.99 L285.31,371.99 Z" fill="#e0acb3" stroke="#ffffff" stroke-width="0.85" vector-effect="non-scaling-stroke"><title>Christian County: -28.42 pts; Beshear 42.68%, Cameron 57.30%; 2020 Biden margin -28.42</title></path><path id="ky-21049" data-county="Clark" d="M638.06,225.29 L644.04,204.75 L668.20,199.11 L671.65,204.35 L681.60,220.74 L677.41,231.67 L668.22,229.86 L638.06,225.29 Z" fill="#dda3aa" stroke="#ffffff" stroke-width="0.85" vector-effect="non-scaling-stroke"><title>Clark County: -32.01 pts; Beshear 51.63%, Cameron 48.35%; 2020 Biden margin -32.01</title></path><path id="ky-21051" data-county="Clay" d="M735.38,302.26 L730.28,310.29 L735.24,337.15 L733.88,337.26 L732.68,336.62 L725.80,335.12 L692.74,323.49 L681.28,309.43 L684.25,300.54 L702.87,289.03 L718.24,287.93 L733.15,299.61 L734.98,300.01 L735.38,302.26 Z" fill="#b82d3e" stroke="#ffffff" stroke-width="0.85" vector-effect="non-scaling-stroke"><title>Clay County: -77.01 pts; Beshear 35.63%, Cameron 64.37%; 2020 Biden margin -77.01</title></path><path id="ky-21053" data-county="Clinton" d="M563.27,375.18 L550.19,374.29 L549.05,374.23 L527.91,373.75 L527.91,373.75 L525.60,373.87 L531.42,359.94 L535.05,347.01 L546.43,350.19 L552.78,346.51 L559.84,358.54 L563.27,375.18 Z" fill="#ba3344" stroke="#ffffff" stroke-width="0.85" vector-effect="non-scaling-stroke"><title>Clinton County: -74.55 pts; Beshear 24.33%, Cameron 75.67%; 2020 Biden margin -74.55</title></path><path id="ky-21055" data-county="Crittenden" d="M231.71,285.42 L197.92,303.85 L197.13,308.86 L185.66,312.66 L182.68,297.89 L166.32,282.44 L169.58,279.57 L171.70,278.25 L175.32,276.84 L178.43,276.35 L198.58,274.37 L201.03,272.52 L201.18,270.66 L201.17,270.65 L206.54,265.74 L216.23,273.62 L219.74,283.22 L231.71,285.42 Z" fill="#c34f5d" stroke="#ffffff" stroke-width="0.85" vector-effect="non-scaling-stroke"><title>Crittenden County: -64.12 pts; Beshear 34.07%, Cameron 65.93%; 2020 Biden margin -64.12</title></path><path id="ky-21057" data-county="Cumberland" d="M507.32,337.19 L533.10,338.73 L528.07,341.92 L535.05,347.01 L531.42,359.94 L525.60,373.87 L509.12,374.73 L490.38,351.28 L507.32,337.19 Z" fill="#c04453" stroke="#ffffff" stroke-width="0.85" vector-effect="non-scaling-stroke"><title>Cumberland County: -68.33 pts; Beshear 26.43%, Cameron 73.57%; 2020 Biden margin -68.33</title></path><path id="ky-21059" data-county="Daviess" d="M277.76,249.74 L293.82,238.41 L287.75,233.83 L290.22,224.53 L294.06,227.03 L294.84,227.54 L301.96,230.94 L310.13,237.14 L310.58,237.76 L311.70,238.09 L312.65,238.13 L315.05,237.51 L316.61,236.53 L317.73,235.37 L318.90,232.86 L320.54,227.78 L320.59,226.70 L320.26,225.54 L320.73,224.55 L321.76,223.58 L324.48,222.04 L328.16,220.81 L328.17,220.81 L342.81,231.29 L346.40,243.38 L347.10,250.89 L331.70,255.96 L321.20,264.14 L294.99,256.96 L277.76,249.74 Z" fill="#e0aeb4" stroke="#ffffff" stroke-width="0.85" vector-effect="non-scaling-stroke"><title>Daviess County: -27.88 pts; Beshear 51.11%, Cameron 48.89%; 2020 Biden margin -27.88</title></path><path id="ky-21061" data-county="Edmonson" d="M387.97,292.27 L424.52,290.56 L437.24,304.68 L436.38,310.32 L434.29,323.69 L429.69,322.77 L417.36,317.73 L409.95,320.48 L396.18,310.01 L387.97,292.27 Z" fill="#c75d6a" stroke="#ffffff" stroke-width="0.85" vector-effect="non-scaling-stroke"><title>Edmonson County: -58.72 pts; Beshear 37.38%, Cameron 62.54%; 2020 Biden margin -58.72</title></path><path id="ky-21063" data-county="Elliott" d="M803.78,192.07 L807.98,199.53 L792.37,211.79 L772.15,211.37 L764.07,199.08 L766.30,190.05 L776.29,181.58 L788.73,190.38 L803.78,192.07 Z" fill="#cd717c" stroke="#ffffff" stroke-width="0.85" vector-effect="non-scaling-stroke"><title>Elliott County: -51.22 pts; Beshear 53.48%, Cameron 46.52%; 2020 Biden margin -51.22</title></path><path id="ky-21065" data-county="Estill" d="M688.72,266.25 L681.72,261.73 L667.04,263.51 L668.22,229.86 L677.41,231.67 L688.64,240.85 L710.25,245.89 L698.28,252.18 L688.72,266.25 Z" fill="#c9616e" stroke="#ffffff" stroke-width="0.85" vector-effect="non-scaling-stroke"><title>Estill County: -57.26 pts; Beshear 42.17%, Cameron 57.83%; 2020 Biden margin -57.26</title></path><path id="ky-21067" data-county="Fayette" d="M630.50,188.23 L632.95,199.30 L644.04,204.75 L638.06,225.29 L626.52,230.54 L621.41,219.65 L600.20,212.18 L600.51,210.53 L604.31,198.96 L604.83,197.42 L630.50,188.23 Z" fill="#457fb9" stroke="#ffffff" stroke-width="0.85" vector-effect="non-scaling-stroke"><title>Fayette County: 20.76 pts; Beshear 71.75%, Cameron 28.24%; 2020 Biden margin +20.76</title></path><path id="ky-21069" data-county="Fleming" d="M719.11,192.56 L709.86,178.29 L695.43,177.78 L679.99,161.10 L681.16,158.18 L685.81,154.86 L694.15,159.08 L719.66,150.98 L726.92,162.18 L741.83,167.83 L735.46,181.01 L720.44,190.62 L720.01,191.70 L719.11,192.56 Z" fill="#c8606d" stroke="#ffffff" stroke-width="0.85" vector-effect="non-scaling-stroke"><title>Fleming County: -57.45 pts; Beshear 42.13%, Cameron 57.87%; 2020 Biden margin -57.45</title></path><path id="ky-21071" data-county="Floyd" d="M803.71,272.86 L809.19,266.57 L801.91,245.90 L822.73,241.23 L837.11,245.45 L846.16,249.59 L839.18,270.86 L843.68,275.20 L833.40,293.94 L828.89,296.46 L824.02,293.80 L822.23,279.75 L803.71,272.86 Z" fill="#cd717c" stroke="#ffffff" stroke-width="0.85" vector-effect="non-scaling-stroke"><title>Floyd County: -51.16 pts; Beshear 57.14%, Cameron 42.85%; 2020 Biden margin -51.16</title></path><path id="ky-21073" data-county="Franklin" d="M590.76,171.27 L590.86,172.96 L591.97,188.18 L592.57,189.69 L576.17,198.90 L557.54,197.48 L560.60,173.25 L575.52,170.76 L590.76,171.27 Z" fill="#f6f5f5" stroke="#ffffff" stroke-width="0.85" vector-effect="non-scaling-stroke"><title>Franklin County: -0.95 pts; Beshear 68.52%, Cameron 31.48%; 2020 Biden margin -0.95</title></path><path id="ky-21075" data-county="Fulton" d="M27.80,388.81 L25.31,385.61 L24.17,383.39 L24.00,382.43 L24.55,381.06 L26.21,379.54 L26.98,379.21 L29.15,379.08 L32.38,379.64 L34.17,380.17 L34.84,380.59 L35.52,381.57 L36.17,383.10 L36.44,384.35 L36.39,385.08 L35.62,386.98 L34.14,388.87 L33.26,388.86 L32.62,388.84 L27.80,388.81 Z M110.42,388.26 L105.75,388.31 L95.22,388.34 L91.04,388.29 L90.25,388.28 L89.82,388.28 L86.98,388.25 L84.14,388.23 L82.59,388.22 L80.47,388.20 L77.26,388.17 L76.99,388.17 L71.90,388.07 L71.88,388.07 L66.25,387.94 L58.31,387.83 L57.93,387.80 L50.45,388.22 L50.45,388.22 L49.21,388.34 L46.46,388.55 L46.26,388.59 L43.66,388.70 L42.09,388.71 L44.05,384.10 L45.51,379.98 L46.89,375.24 L48.16,373.92 L50.72,373.23 L52.62,373.10 L52.72,373.09 L54.28,374.50 L56.48,377.60 L59.17,380.22 L60.55,380.95 L63.30,380.76 L64.38,380.46 L65.99,379.20 L67.28,376.68 L67.48,374.73 L67.86,373.47 L69.02,372.04 L70.55,370.95 L70.55,370.94 L87.92,377.79 L102.37,379.58 L110.42,388.26 Z" fill="#dc9fa7" stroke="#ffffff" stroke-width="0.85" vector-effect="non-scaling-stroke"><title>Fulton County: -33.47 pts; Beshear 44.89%, Cameron 55.11%; 2020 Biden margin -33.47</title></path><path id="ky-21077" data-county="Gallatin" d="M600.20,121.43 L586.04,122.85 L585.46,128.10 L568.00,134.94 L557.48,123.07 L560.80,121.49 L562.13,121.22 L563.44,121.25 L566.86,121.67 L578.58,120.28 L582.22,118.96 L584.83,112.21 L600.20,121.43 Z" fill="#ca6672" stroke="#ffffff" stroke-width="0.85" vector-effect="non-scaling-stroke"><title>Gallatin County: -55.41 pts; Beshear 40.71%, Cameron 59.29%; 2020 Biden margin -55.41</title></path><path id="ky-21079" data-county="Garrard" d="M593.53,234.28 L598.35,233.00 L610.73,244.45 L615.98,239.66 L636.84,266.69 L633.71,274.49 L625.23,272.93 L600.41,255.50 L590.25,246.28 L595.90,245.14 L593.53,234.28 Z" fill="#c9636f" stroke="#ffffff" stroke-width="0.85" vector-effect="non-scaling-stroke"><title>Garrard County: -56.56 pts; Beshear 37.69%, Cameron 62.31%; 2020 Biden margin -56.56</title></path><path id="ky-21081" data-county="Grant" d="M605.41,118.51 L607.51,119.80 L615.20,119.71 L621.76,148.95 L612.25,154.79 L611.87,154.85 L609.53,157.12 L586.80,140.05 L585.46,128.10 L586.04,122.85 L600.20,121.43 L600.66,119.92 L603.73,118.42 L605.41,118.51 Z" fill="#c75d6a" stroke="#ffffff" stroke-width="0.85" vector-effect="non-scaling-stroke"><title>Grant County: -58.7 pts; Beshear 35.16%, Cameron 64.82%; 2020 Biden margin -58.70</title></path><path id="ky-21083" data-county="Graves" d="M150.97,388.47 L148.31,388.43 L148.27,388.42 L147.79,388.43 L147.78,388.43 L144.41,388.38 L140.64,388.37 L130.80,388.33 L124.45,388.28 L120.67,388.26 L114.56,388.27 L112.55,388.27 L112.96,356.56 L113.00,336.17 L151.57,336.73 L151.39,359.23 L150.99,388.47 L150.97,388.47 Z" fill="#c9626f" stroke="#ffffff" stroke-width="0.85" vector-effect="non-scaling-stroke"><title>Graves County: -56.68 pts; Beshear 36.49%, Cameron 63.51%; 2020 Biden margin -56.68</title></path><path id="ky-21085" data-county="Grayson" d="M371.20,283.58 L365.10,265.87 L373.46,263.73 L383.95,256.94 L402.39,263.92 L410.71,260.31 L429.62,263.40 L437.42,277.15 L440.77,283.65 L434.52,285.23 L435.43,289.04 L424.52,290.56 L387.97,292.27 L385.85,287.41 L371.20,283.58 Z" fill="#c75d6a" stroke="#ffffff" stroke-width="0.85" vector-effect="non-scaling-stroke"><title>Grayson County: -58.84 pts; Beshear 36.07%, Cameron 63.91%; 2020 Biden margin -58.84</title></path><path id="ky-21087" data-county="Green" d="M483.21,280.43 L491.87,274.81 L491.75,279.24 L504.24,287.27 L518.94,307.36 L515.71,310.19 L498.51,317.10 L486.14,315.27 L479.79,308.54 L478.51,294.53 L483.21,280.43 Z" fill="#c04655" stroke="#ffffff" stroke-width="0.85" vector-effect="non-scaling-stroke"><title>Green County: -67.41 pts; Beshear 29.63%, Cameron 70.35%; 2020 Biden margin -67.41</title></path><path id="ky-21089" data-county="Greenup" d="M791.34,127.50 L791.36,127.48 L793.58,126.97 L797.38,127.45 L798.63,127.12 L801.63,125.42 L803.91,124.62 L807.37,123.86 L807.96,123.92 L809.10,124.46 L809.57,124.95 L809.69,125.18 L810.06,125.88 L810.21,126.92 L810.17,127.91 L809.80,129.31 L810.26,133.06 L812.14,140.95 L812.89,142.79 L813.79,143.85 L816.06,145.43 L816.55,145.66 L818.41,146.55 L819.63,146.93 L826.53,147.01 L827.24,147.20 L830.55,149.02 L831.27,149.67 L834.20,153.28 L834.21,153.29 L816.38,168.75 L797.47,165.82 L788.89,158.02 L775.44,153.49 L786.63,142.79 L791.34,127.50 Z" fill="#d2818b" stroke="#ffffff" stroke-width="0.85" vector-effect="non-scaling-stroke"><title>Greenup County: -45.07 pts; Beshear 45.74%, Cameron 54.26%; 2020 Biden margin -45.07</title></path><path id="ky-21091" data-county="Hancock" d="M346.40,243.38 L342.81,231.29 L328.17,220.81 L335.15,220.05 L337.14,218.93 L339.18,216.80 L342.59,214.11 L346.39,212.74 L347.36,212.75 L347.42,212.78 L349.74,213.91 L350.59,215.97 L352.65,219.63 L354.90,222.84 L356.09,224.05 L357.19,225.01 L358.12,225.19 L358.72,225.16 L359.81,224.63 L365.54,228.45 L366.13,231.10 L366.13,231.10 L363.48,236.92 L368.05,252.29 L346.40,243.38 Z" fill="#d79099" stroke="#ffffff" stroke-width="0.85" vector-effect="non-scaling-stroke"><title>Hancock County: -39.11 pts; Beshear 49.41%, Cameron 50.59%; 2020 Biden margin -39.11</title></path><path id="ky-21093" data-county="Hardin" d="M437.42,277.15 L429.62,263.40 L410.71,260.31 L425.26,236.21 L442.13,233.92 L445.83,227.19 L443.17,212.88 L448.70,211.96 L449.11,211.79 L449.45,212.33 L450.24,212.76 L460.03,219.03 L461.99,226.78 L473.77,234.70 L480.49,244.03 L457.55,266.20 L455.58,278.28 L437.42,277.15 Z" fill="#e4b8bd" stroke="#ffffff" stroke-width="0.85" vector-effect="non-scaling-stroke"><title>Hardin County: -23.97 pts; Beshear 49.70%, Cameron 50.30%; 2020 Biden margin -23.97</title></path><path id="ky-21095" data-county="Harlan" d="M810.31,332.97 L810.31,332.97 L810.18,333.93 L810.19,333.99 L810.52,334.26 L810.75,334.85 L810.89,334.87 L811.05,334.89 L811.32,335.10 L811.57,335.33 L811.89,335.36 L811.84,335.51 L811.31,336.29 L811.24,336.41 L811.19,337.06 L811.32,337.28 L811.53,337.79 L811.57,337.83 L811.16,338.83 L810.98,339.05 L809.96,340.09 L809.77,340.23 L808.38,341.62 L805.32,344.69 L805.31,344.69 L798.08,346.47 L786.45,347.00 L783.25,350.48 L779.51,355.57 L779.56,357.26 L780.22,357.93 L780.21,357.94 L779.96,359.17 L778.96,360.08 L775.32,360.54 L771.53,360.73 L754.74,364.98 L753.48,365.52 L753.36,365.58 L740.90,369.25 L740.88,369.25 L734.93,352.54 L737.50,342.21 L764.46,333.58 L773.60,327.46 L774.82,327.92 L776.09,327.50 L776.18,328.31 L778.03,328.33 L778.92,329.45 L780.38,329.27 L780.64,329.82 L777.32,335.31 L802.06,328.12 L810.31,332.97 Z" fill="#bd3b4b" stroke="#ffffff" stroke-width="0.85" vector-effect="non-scaling-stroke"><title>Harlan County: -71.76 pts; Beshear 33.96%, Cameron 66.04%; 2020 Biden margin -71.76</title></path><path id="ky-21097" data-county="Harrison" d="M625.71,179.39 L625.94,177.85 L626.86,177.49 L625.58,174.57 L612.25,154.79 L621.76,148.95 L653.55,144.33 L652.85,147.99 L658.63,147.61 L656.07,154.19 L665.66,158.72 L654.88,169.01 L637.11,179.17 L625.71,179.39 Z" fill="#d3828c" stroke="#ffffff" stroke-width="0.85" vector-effect="non-scaling-stroke"><title>Harrison County: -44.41 pts; Beshear 49.09%, Cameron 50.91%; 2020 Biden margin -44.41</title></path><path id="ky-21099" data-county="Hart" d="M437.42,277.15 L455.58,278.28 L483.21,280.43 L478.51,294.53 L479.79,308.54 L473.05,310.01 L473.01,310.02 L453.99,312.53 L436.38,310.32 L437.24,304.68 L424.52,290.56 L435.43,289.04 L434.52,285.23 L440.77,283.65 L437.42,277.15 Z" fill="#cc6c78" stroke="#ffffff" stroke-width="0.85" vector-effect="non-scaling-stroke"><title>Hart County: -53.01 pts; Beshear 38.62%, Cameron 61.38%; 2020 Biden margin -53.01</title></path><path id="ky-21101" data-county="Henderson" d="M245.44,223.94 L246.41,224.12 L247.50,224.84 L247.92,226.04 L245.72,229.52 L245.69,230.64 L246.00,231.82 L246.98,232.75 L249.92,233.04 L253.49,232.33 L254.52,231.55 L256.29,229.44 L256.62,228.93 L256.65,228.01 L256.28,225.85 L255.63,225.24 L252.92,223.54 L252.21,222.46 L251.90,221.22 L255.13,215.84 L256.13,215.45 L256.95,215.50 L257.51,215.73 L258.26,216.40 L258.41,217.00 L258.31,217.92 L258.58,218.78 L260.07,220.70 L261.12,221.43 L265.68,223.60 L272.75,219.54 L272.84,219.49 L274.43,219.17 L276.58,219.10 L278.45,219.39 L281.08,220.17 L290.22,224.53 L287.75,233.83 L293.82,238.41 L277.76,249.74 L276.35,251.32 L274.25,251.22 L270.22,251.94 L267.57,253.97 L239.51,255.04 L237.03,244.56 L230.06,240.49 L216.88,224.11 L219.54,221.43 L220.33,221.12 L222.06,221.27 L223.32,221.89 L224.14,222.58 L225.12,224.27 L227.00,226.42 L228.24,227.11 L232.90,227.20 L233.75,226.96 L236.26,225.42 L243.51,224.25 L245.44,223.94 Z" fill="#e3b6bc" stroke="#ffffff" stroke-width="0.85" vector-effect="non-scaling-stroke"><title>Henderson County: -24.6 pts; Beshear 55.77%, Cameron 44.22%; 2020 Biden margin -24.60</title></path><path id="ky-21103" data-county="Henry" d="M575.52,170.76 L560.60,173.25 L527.11,170.61 L519.72,158.71 L523.49,154.83 L540.58,143.93 L551.57,142.60 L563.00,152.44 L564.63,161.31 L574.37,163.79 L575.52,170.76 Z" fill="#d27f89" stroke="#ffffff" stroke-width="0.85" vector-effect="non-scaling-stroke"><title>Henry County: -45.64 pts; Beshear 44.97%, Cameron 55.01%; 2020 Biden margin -45.64</title></path><path id="ky-21105" data-county="Hickman" d="M112.55,388.27 L111.34,388.26 L111.31,388.26 L110.45,388.25 L110.42,388.26 L102.37,379.58 L87.92,377.79 L70.55,370.94 L70.88,368.36 L67.65,363.25 L67.46,362.11 L67.84,360.51 L69.40,358.84 L71.21,358.16 L74.35,358.64 L75.75,359.07 L76.55,355.14 L112.96,356.56 L112.55,388.27 Z" fill="#c9616e" stroke="#ffffff" stroke-width="0.85" vector-effect="non-scaling-stroke"><title>Hickman County: -57.11 pts; Beshear 33.03%, Cameron 66.97%; 2020 Biden margin -57.11</title></path><path id="ky-21107" data-county="Hopkins" d="M245.84,312.43 L231.24,301.65 L225.88,292.14 L230.26,288.80 L256.05,275.74 L267.03,272.83 L281.67,263.07 L284.40,280.00 L290.96,283.97 L280.07,299.27 L286.53,311.50 L264.49,317.58 L245.84,312.43 Z" fill="#d07984" stroke="#ffffff" stroke-width="0.85" vector-effect="non-scaling-stroke"><title>Hopkins County: -47.97 pts; Beshear 45.50%, Cameron 54.50%; 2020 Biden margin -47.97</title></path><path id="ky-21109" data-county="Jackson" d="M702.87,289.03 L684.25,300.54 L661.46,292.42 L654.24,268.60 L667.04,263.51 L681.72,261.73 L688.72,266.25 L689.34,267.08 L690.14,267.63 L690.18,268.16 L690.70,268.67 L691.10,269.20 L702.87,289.03 Z" fill="#b72739" stroke="#ffffff" stroke-width="0.85" vector-effect="non-scaling-stroke"><title>Jackson County: -79.3 pts; Beshear 22.91%, Cameron 77.06%; 2020 Biden margin -79.30</title></path><path id="ky-21111" data-county="Jefferson" d="M487.15,203.27 L477.83,202.47 L476.73,202.38 L461.51,206.58 L450.24,212.76 L449.45,212.33 L449.11,211.79 L449.88,211.47 L451.19,210.47 L452.11,209.25 L453.38,204.77 L454.01,202.51 L454.20,200.85 L454.13,199.59 L453.63,196.19 L453.71,193.71 L454.79,191.46 L455.01,191.00 L463.02,180.15 L463.68,179.70 L464.57,179.42 L467.46,178.76 L467.46,178.76 L468.70,178.78 L469.59,179.05 L470.46,179.71 L470.39,180.04 L471.04,180.64 L472.22,181.19 L472.94,181.27 L480.13,177.95 L481.13,177.27 L483.64,174.24 L485.38,170.21 L485.47,168.01 L505.39,179.15 L512.82,181.68 L510.57,195.32 L510.01,198.73 L494.95,203.96 L487.15,203.27 Z" fill="#4c83bb" stroke="#ffffff" stroke-width="0.85" vector-effect="non-scaling-stroke"><title>Jefferson County: 20.03 pts; Beshear 70.04%, Cameron 29.95%; 2020 Biden margin +20.03</title></path><path id="ky-21113" data-county="Jessamine" d="M593.53,234.28 L592.81,233.68 L592.77,232.22 L593.54,231.28 L596.05,230.75 L596.80,229.65 L594.36,228.81 L600.20,212.18 L621.41,219.65 L626.52,230.54 L615.98,239.66 L610.73,244.45 L598.35,233.00 L593.53,234.28 Z" fill="#dda2a9" stroke="#ffffff" stroke-width="0.85" vector-effect="non-scaling-stroke"><title>Jessamine County: -32.45 pts; Beshear 46.79%, Cameron 53.20%; 2020 Biden margin -32.45</title></path><path id="ky-21115" data-county="Johnson" d="M801.91,245.90 L794.42,229.13 L796.25,216.85 L801.07,212.57 L840.44,226.78 L833.57,230.00 L837.11,245.45 L822.73,241.23 L801.91,245.90 Z" fill="#c14756" stroke="#ffffff" stroke-width="0.85" vector-effect="non-scaling-stroke"><title>Johnson County: -67.13 pts; Beshear 37.08%, Cameron 62.92%; 2020 Biden margin -67.13</title></path><path id="ky-21117" data-county="Kenton" d="M617.80,84.32 L617.84,84.31 L618.27,84.14 L624.76,96.05 L623.28,112.66 L628.59,117.99 L628.35,118.10 L615.20,119.71 L607.51,119.80 L605.41,118.51 L607.48,109.43 L604.47,86.57 L604.89,86.68 L606.85,86.65 L617.80,84.32 Z" fill="#e7c4c9" stroke="#ffffff" stroke-width="0.85" vector-effect="non-scaling-stroke"><title>Kenton County: -19.29 pts; Beshear 52.80%, Cameron 47.20%; 2020 Biden margin -19.29</title></path><path id="ky-21119" data-county="Knott" d="M826.32,298.08 L816.15,298.42 L797.40,309.71 L794.95,306.98 L780.03,298.45 L780.37,282.43 L779.16,276.30 L787.66,268.20 L801.00,270.91 L801.51,271.11 L801.36,271.58 L801.81,271.71 L801.85,272.48 L802.66,271.98 L803.71,272.86 L822.23,279.75 L824.02,293.80 L828.89,296.46 L827.95,297.06 L827.28,296.97 L826.32,298.08 Z" fill="#cb6a76" stroke="#ffffff" stroke-width="0.85" vector-effect="non-scaling-stroke"><title>Knott County: -53.88 pts; Beshear 54.45%, Cameron 45.55%; 2020 Biden margin -53.88</title></path><path id="ky-21121" data-county="Knox" d="M725.80,335.12 L726.79,341.12 L701.31,355.14 L692.01,366.63 L682.51,361.94 L669.93,347.07 L666.87,335.10 L682.41,332.62 L692.74,323.49 L725.80,335.12 Z" fill="#c14756" stroke="#ffffff" stroke-width="0.85" vector-effect="non-scaling-stroke"><title>Knox County: -67.04 pts; Beshear 34.54%, Cameron 65.46%; 2020 Biden margin -67.04</title></path><path id="ky-21123" data-county="LaRue" d="M499.17,264.90 L505.62,275.31 L491.87,274.81 L483.21,280.43 L455.58,278.28 L457.55,266.20 L480.49,244.03 L490.86,248.58 L487.20,265.22 L499.17,264.90 Z" fill="#c9616e" stroke="#ffffff" stroke-width="0.85" vector-effect="non-scaling-stroke"><title>LaRue County: -57.27 pts; Beshear 38.57%, Cameron 61.41%; 2020 Biden margin -57.27</title></path><path id="ky-21125" data-county="Laurel" d="M692.74,323.49 L682.41,332.62 L666.87,335.10 L642.75,336.28 L637.07,337.04 L634.44,336.32 L635.64,334.70 L643.73,312.14 L647.88,301.84 L661.46,292.42 L684.25,300.54 L681.28,309.43 L692.74,323.49 Z" fill="#c14857" stroke="#ffffff" stroke-width="0.85" vector-effect="non-scaling-stroke"><title>Laurel County: -66.74 pts; Beshear 31.41%, Cameron 68.59%; 2020 Biden margin -66.74</title></path><path id="ky-21127" data-county="Lawrence" d="M853.94,219.01 L853.93,219.03 L843.99,218.21 L840.44,226.78 L801.07,212.57 L796.25,216.85 L793.08,215.64 L792.37,211.79 L807.98,199.53 L803.78,192.07 L819.11,184.02 L841.39,183.61 L836.64,193.20 L837.61,196.44 L839.41,198.16 L841.58,198.73 L841.87,198.85 L848.07,205.45 L849.03,208.03 L851.31,211.62 L852.47,212.47 L855.06,212.81 L857.67,214.40 L857.83,214.68 L857.73,215.33 L853.94,219.01 Z" fill="#c4515f" stroke="#ffffff" stroke-width="0.85" vector-effect="non-scaling-stroke"><title>Lawrence County: -63.19 pts; Beshear 37.31%, Cameron 62.69%; 2020 Biden margin -63.19</title></path><path id="ky-21129" data-county="Lee" d="M727.01,270.54 L721.00,266.88 L697.66,272.82 L691.10,269.20 L690.70,268.67 L690.18,268.16 L690.14,267.63 L689.34,267.08 L688.72,266.25 L698.28,252.18 L710.25,245.89 L711.41,245.45 L711.90,245.88 L733.69,255.03 L727.01,270.54 Z" fill="#c34f5d" stroke="#ffffff" stroke-width="0.85" vector-effect="non-scaling-stroke"><title>Lee County: -63.98 pts; Beshear 46.32%, Cameron 53.68%; 2020 Biden margin -63.98</title></path><path id="ky-21131" data-county="Leslie" d="M735.38,302.26 L740.88,295.46 L753.69,295.25 L756.88,303.47 L771.28,309.51 L773.60,327.46 L764.46,333.58 L737.50,342.21 L736.26,342.20 L735.74,341.21 L737.54,340.34 L736.98,339.37 L735.19,338.93 L735.24,337.15 L730.28,310.29 L735.38,302.26 Z" fill="#b62436" stroke="#ffffff" stroke-width="0.85" vector-effect="non-scaling-stroke"><title>Leslie County: -80.51 pts; Beshear 30.36%, Cameron 69.64%; 2020 Biden margin -80.51</title></path><path id="ky-21133" data-county="Letcher" d="M845.95,306.93 L838.97,310.82 L827.58,317.54 L827.74,320.34 L827.52,324.65 L821.73,328.09 L821.08,328.14 L819.73,328.98 L819.71,329.00 L819.54,329.09 L819.49,329.14 L818.36,329.01 L816.58,329.09 L816.31,329.21 L814.84,329.83 L815.01,330.23 L814.81,330.71 L814.46,330.88 L814.20,331.25 L813.90,331.46 L813.73,331.45 L812.40,331.76 L812.25,331.70 L811.04,332.29 L810.81,332.40 L810.68,332.49 L810.60,332.51 L810.50,332.57 L810.39,332.70 L810.31,332.97 L802.06,328.12 L777.32,335.31 L780.64,329.82 L788.55,327.59 L788.06,315.38 L794.95,306.98 L797.40,309.71 L816.15,298.42 L826.32,298.08 L845.95,306.93 Z" fill="#c75b68" stroke="#ffffff" stroke-width="0.85" vector-effect="non-scaling-stroke"><title>Letcher County: -59.41 pts; Beshear 52.33%, Cameron 47.67%; 2020 Biden margin -59.41</title></path><path id="ky-21135" data-county="Lewis" d="M719.53,137.15 L720.32,133.95 L721.41,132.91 L722.72,132.36 L727.53,131.36 L732.39,130.25 L733.84,130.14 L734.83,130.29 L751.66,135.27 L755.85,137.35 L756.93,138.32 L757.36,139.56 L761.87,141.88 L763.78,141.61 L776.55,139.82 L778.20,139.29 L779.12,138.51 L779.99,137.25 L791.34,127.50 L786.63,142.79 L775.44,153.49 L767.14,162.61 L767.90,172.81 L754.92,175.13 L741.83,167.83 L726.92,162.18 L719.66,150.98 L719.09,137.83 L719.53,137.15 Z" fill="#be3d4d" stroke="#ffffff" stroke-width="0.85" vector-effect="non-scaling-stroke"><title>Lewis County: -70.76 pts; Beshear 31.64%, Cameron 68.36%; 2020 Biden margin -70.76</title></path><path id="ky-21137" data-county="Lincoln" d="M601.61,295.87 L593.09,301.98 L592.84,287.70 L577.83,279.83 L578.24,265.66 L583.66,263.21 L600.41,255.50 L625.23,272.93 L618.64,291.36 L612.36,288.20 L601.61,295.87 Z" fill="#c9616e" stroke="#ffffff" stroke-width="0.85" vector-effect="non-scaling-stroke"><title>Lincoln County: -57.13 pts; Beshear 37.82%, Cameron 62.18%; 2020 Biden margin -57.13</title></path><path id="ky-21139" data-county="Livingston" d="M151.71,327.29 L142.18,320.73 L142.67,321.02 L144.38,321.72 L146.00,322.05 L148.02,322.28 L150.85,322.12 L151.72,322.06 L154.52,321.28 L156.21,318.37 L158.58,312.05 L155.84,306.06 L154.55,304.89 L153.02,304.11 L148.61,299.18 L147.84,296.61 L147.99,295.80 L152.45,284.55 L153.20,283.45 L154.87,282.01 L156.83,281.08 L159.69,280.26 L160.41,280.05 L166.32,282.44 L182.68,297.89 L185.66,312.66 L181.25,320.37 L183.82,329.94 L180.17,332.06 L165.48,322.41 L151.71,327.29 Z" fill="#c55664" stroke="#ffffff" stroke-width="0.85" vector-effect="non-scaling-stroke"><title>Livingston County: -61.38 pts; Beshear 36.62%, Cameron 63.38%; 2020 Biden margin -61.38</title></path><path id="ky-21141" data-county="Logan" d="M353.46,371.13 L347.62,371.27 L347.25,371.27 L346.99,371.28 L345.26,371.33 L342.78,371.36 L336.71,371.43 L336.65,371.44 L318.55,371.77 L319.45,322.78 L328.46,321.30 L332.56,321.84 L343.83,323.31 L363.88,329.96 L371.25,343.66 L361.97,348.20 L353.46,371.13 Z" fill="#d07883" stroke="#ffffff" stroke-width="0.85" vector-effect="non-scaling-stroke"><title>Logan County: -48.37 pts; Beshear 37.35%, Cameron 62.60%; 2020 Biden margin -48.37</title></path><path id="ky-21143" data-county="Lyon" d="M197.13,308.86 L203.42,309.44 L222.80,334.62 L189.91,345.52 L180.17,332.06 L183.82,329.94 L181.25,320.37 L185.66,312.66 L197.13,308.86 Z" fill="#d07a85" stroke="#ffffff" stroke-width="0.85" vector-effect="non-scaling-stroke"><title>Lyon County: -47.49 pts; Beshear 42.99%, Cameron 57.01%; 2020 Biden margin -47.49</title></path><path id="ky-21151" data-county="Madison" d="M636.84,266.69 L615.98,239.66 L626.52,230.54 L638.06,225.29 L668.22,229.86 L667.04,263.51 L654.24,268.60 L636.84,266.69 Z" fill="#e1b1b7" stroke="#ffffff" stroke-width="0.85" vector-effect="non-scaling-stroke"><title>Madison County: -26.78 pts; Beshear 51.72%, Cameron 48.28%; 2020 Biden margin -26.78</title></path><path id="ky-21153" data-county="Magoffin" d="M803.71,272.86 L802.66,271.98 L801.85,272.48 L801.81,271.71 L801.36,271.58 L801.51,271.11 L801.00,270.91 L784.43,255.77 L779.13,258.75 L765.79,251.38 L764.64,250.17 L766.38,247.91 L764.20,246.33 L763.33,240.07 L781.67,228.56 L794.42,229.13 L801.91,245.90 L809.19,266.57 L803.71,272.86 Z" fill="#cb6875" stroke="#ffffff" stroke-width="0.85" vector-effect="non-scaling-stroke"><title>Magoffin County: -54.34 pts; Beshear 50.38%, Cameron 49.62%; 2020 Biden margin -54.34</title></path><path id="ky-21155" data-county="Marion" d="M551.67,281.41 L540.21,275.37 L531.37,280.64 L520.38,274.85 L505.62,275.31 L499.17,264.90 L507.47,249.46 L513.19,244.22 L516.49,250.94 L530.14,255.92 L556.78,255.88 L555.67,265.97 L551.67,281.41 Z" fill="#d8939c" stroke="#ffffff" stroke-width="0.85" vector-effect="non-scaling-stroke"><title>Marion County: -37.98 pts; Beshear 52.14%, Cameron 47.84%; 2020 Biden margin -37.98</title></path><path id="ky-21157" data-county="Marshall" d="M151.39,359.23 L151.57,336.73 L151.44,329.81 L151.71,327.29 L165.48,322.41 L180.17,332.06 L189.91,345.52 L195.37,359.60 L151.39,359.23 Z" fill="#cc6e79" stroke="#ffffff" stroke-width="0.85" vector-effect="non-scaling-stroke"><title>Marshall County: -52.41 pts; Beshear 39.94%, Cameron 60.05%; 2020 Biden margin -52.41</title></path><path id="ky-21159" data-county="Martin" d="M853.93,219.03 L853.58,220.07 L856.59,223.13 L863.28,227.79 L865.33,230.00 L873.58,238.91 L874.85,240.90 L873.99,243.03 L858.77,251.48 L846.16,249.59 L837.11,245.45 L833.57,230.00 L840.44,226.78 L843.99,218.21 L853.93,219.03 Z" fill="#b7293a" stroke="#ffffff" stroke-width="0.85" vector-effect="non-scaling-stroke"><title>Martin County: -78.58 pts; Beshear 29.81%, Cameron 70.19%; 2020 Biden margin -78.58</title></path><path id="ky-21161" data-county="Mason" d="M712.13,137.87 L715.25,138.70 L717.07,138.95 L718.07,138.74 L718.74,138.38 L719.09,137.83 L719.66,150.98 L694.15,159.08 L685.81,154.86 L678.63,142.97 L688.92,122.50 L692.84,123.27 L694.18,123.83 L694.85,124.33 L703.71,133.49 L704.19,135.03 L704.70,135.75 L705.51,136.11 L712.13,137.87 Z" fill="#d79099" stroke="#ffffff" stroke-width="0.85" vector-effect="non-scaling-stroke"><title>Mason County: -39.14 pts; Beshear 46.68%, Cameron 53.30%; 2020 Biden margin -39.14</title></path><path id="ky-21145" data-county="McCracken" d="M113.00,336.17 L112.64,335.32 L98.86,303.54 L98.86,303.54 L97.84,303.09 L99.49,303.39 L100.79,303.62 L113.43,307.74 L134.94,315.92 L139.24,318.25 L140.71,319.87 L142.18,320.73 L151.71,327.29 L151.44,329.81 L151.57,336.73 L113.00,336.17 Z" fill="#dda4ab" stroke="#ffffff" stroke-width="0.85" vector-effect="non-scaling-stroke"><title>McCracken County: -31.67 pts; Beshear 47.06%, Cameron 52.94%; 2020 Biden margin -31.67</title></path><path id="ky-21147" data-county="McCreary" d="M650.98,377.84 L646.98,377.81 L586.32,376.49 L598.57,360.49 L609.68,351.71 L609.81,345.53 L635.64,334.70 L634.44,336.32 L637.07,337.04 L642.75,336.28 L636.58,355.67 L641.56,367.85 L650.98,377.84 Z" fill="#b92e3f" stroke="#ffffff" stroke-width="0.85" vector-effect="non-scaling-stroke"><title>McCreary County: -76.72 pts; Beshear 28.21%, Cameron 71.76%; 2020 Biden margin -76.72</title></path><path id="ky-21149" data-county="McLean" d="M321.20,264.14 L319.89,265.19 L313.59,273.52 L313.98,281.13 L290.96,283.97 L284.40,280.00 L281.67,263.07 L267.57,253.97 L270.22,251.94 L274.25,251.22 L276.35,251.32 L277.76,249.74 L294.99,256.96 L321.20,264.14 Z" fill="#cc6b77" stroke="#ffffff" stroke-width="0.85" vector-effect="non-scaling-stroke"><title>McLean County: -53.51 pts; Beshear 41.59%, Cameron 58.41%; 2020 Biden margin -53.51</title></path><path id="ky-21163" data-county="Meade" d="M425.26,236.21 L414.52,227.05 L385.42,207.25 L385.42,207.25 L388.23,207.15 L389.95,206.70 L391.59,205.53 L392.23,204.74 L392.55,203.39 L392.97,203.02 L396.23,200.15 L403.99,197.35 L404.67,196.83 L405.06,196.31 L406.13,195.89 L406.67,195.68 L409.69,195.82 L411.19,197.35 L410.39,200.60 L410.31,202.14 L410.91,204.71 L411.69,205.92 L417.15,209.34 L422.01,211.29 L422.80,211.45 L439.54,213.48 L443.17,212.88 L445.83,227.19 L442.13,233.92 L425.26,236.21 Z" fill="#d17d88" stroke="#ffffff" stroke-width="0.85" vector-effect="non-scaling-stroke"><title>Meade County: -46.43 pts; Beshear 43.13%, Cameron 56.83%; 2020 Biden margin -46.43</title></path><path id="ky-21165" data-county="Menifee" d="M711.72,211.53 L726.85,211.25 L736.44,206.68 L744.05,208.63 L736.88,228.82 L720.93,233.11 L704.77,222.20 L705.87,212.77 L706.15,213.48 L706.76,212.96 L707.02,213.00 L707.56,212.43 L707.27,212.15 L707.67,211.81 L708.09,211.78 L708.42,211.45 L708.63,211.79 L708.93,211.72 L709.20,211.38 L709.65,211.61 L709.65,211.80 L710.24,211.91 L710.67,212.22 L711.05,212.10 L711.41,211.48 L711.72,211.53 Z" fill="#ce737e" stroke="#ffffff" stroke-width="0.85" vector-effect="non-scaling-stroke"><title>Menifee County: -50.32 pts; Beshear 45.88%, Cameron 54.07%; 2020 Biden margin -50.32</title></path><path id="ky-21167" data-county="Mercer" d="M594.36,228.81 L596.80,229.65 L596.05,230.75 L593.54,231.28 L592.77,232.22 L592.81,233.68 L593.53,234.28 L595.90,245.14 L590.25,246.28 L557.39,250.29 L560.26,229.67 L556.74,225.34 L567.62,218.15 L584.22,216.13 L581.58,218.97 L594.36,228.81 Z" fill="#d17d87" stroke="#ffffff" stroke-width="0.85" vector-effect="non-scaling-stroke"><title>Mercer County: -46.63 pts; Beshear 44.26%, Cameron 55.72%; 2020 Biden margin -46.63</title></path><path id="ky-21169" data-county="Metcalfe" d="M473.01,310.02 L473.05,310.01 L479.79,308.54 L486.14,315.27 L498.51,317.10 L507.32,337.19 L490.38,351.28 L473.60,348.54 L473.01,310.02 Z" fill="#c75b68" stroke="#ffffff" stroke-width="0.85" vector-effect="non-scaling-stroke"><title>Metcalfe County: -59.54 pts; Beshear 40.99%, Cameron 59.01%; 2020 Biden margin -59.54</title></path><path id="ky-21171" data-county="Monroe" d="M467.80,374.30 L467.80,374.30 L445.77,373.53 L445.71,362.47 L473.60,348.54 L490.38,351.28 L509.12,374.73 L505.03,374.94 L500.66,375.10 L495.62,375.02 L495.56,375.01 L467.80,374.30 Z" fill="#bb3444" stroke="#ffffff" stroke-width="0.85" vector-effect="non-scaling-stroke"><title>Monroe County: -74.5 pts; Beshear 25.27%, Cameron 74.73%; 2020 Biden margin -74.50</title></path><path id="ky-21173" data-county="Montgomery" d="M680.23,190.08 L691.56,196.60 L705.87,212.77 L704.77,222.20 L681.60,220.74 L671.65,204.35 L668.20,199.11 L680.23,190.08 Z" fill="#d58993" stroke="#ffffff" stroke-width="0.85" vector-effect="non-scaling-stroke"><title>Montgomery County: -41.76 pts; Beshear 49.31%, Cameron 50.69%; 2020 Biden margin -41.76</title></path><path id="ky-21175" data-county="Morgan" d="M792.37,211.79 L793.08,215.64 L796.25,216.85 L794.42,229.13 L781.67,228.56 L763.33,240.07 L764.20,246.33 L736.88,228.82 L744.05,208.63 L764.07,199.08 L772.15,211.37 L792.37,211.79 Z" fill="#c96370" stroke="#ffffff" stroke-width="0.85" vector-effect="non-scaling-stroke"><title>Morgan County: -56.39 pts; Beshear 47.18%, Cameron 52.79%; 2020 Biden margin -56.39</title></path><path id="ky-21177" data-county="Muhlenberg" d="M313.98,281.13 L337.50,305.03 L338.13,319.56 L332.56,321.84 L328.46,321.30 L319.45,322.78 L296.33,325.18 L295.26,321.44 L286.53,311.50 L280.07,299.27 L290.96,283.97 L313.98,281.13 Z" fill="#cf7782" stroke="#ffffff" stroke-width="0.85" vector-effect="non-scaling-stroke"><title>Muhlenberg County: -48.84 pts; Beshear 46.45%, Cameron 53.55%; 2020 Biden margin -48.84</title></path><path id="ky-21179" data-county="Nelson" d="M542.40,224.62 L525.24,232.42 L513.19,244.22 L507.47,249.46 L499.17,264.90 L487.20,265.22 L490.86,248.58 L480.49,244.03 L473.77,234.70 L483.91,232.68 L502.93,213.71 L513.41,219.66 L540.63,215.93 L542.40,224.62 Z" fill="#d9979f" stroke="#ffffff" stroke-width="0.85" vector-effect="non-scaling-stroke"><title>Nelson County: -36.61 pts; Beshear 50.63%, Cameron 49.37%; 2020 Biden margin -36.61</title></path><path id="ky-21181" data-county="Nicholas" d="M679.99,161.10 L695.43,177.78 L695.20,177.86 L680.23,190.08 L663.54,180.30 L654.88,169.01 L665.66,158.72 L679.99,161.10 Z" fill="#d48790" stroke="#ffffff" stroke-width="0.85" vector-effect="non-scaling-stroke"><title>Nicholas County: -42.79 pts; Beshear 56.01%, Cameron 43.99%; 2020 Biden margin -42.79</title></path><path id="ky-21183" data-county="Ohio" d="M370.47,284.02 L353.90,294.26 L347.14,291.50 L337.50,305.03 L313.98,281.13 L313.59,273.52 L319.89,265.19 L321.20,264.14 L331.70,255.96 L347.10,250.89 L346.40,243.38 L368.05,252.29 L373.46,263.73 L365.10,265.87 L371.20,283.58 L370.47,284.02 Z" fill="#ca6572" stroke="#ffffff" stroke-width="0.85" vector-effect="non-scaling-stroke"><title>Ohio County: -55.51 pts; Beshear 39.24%, Cameron 60.76%; 2020 Biden margin -55.51</title></path><path id="ky-21185" data-county="Oldham" d="M505.39,179.15 L485.47,168.01 L485.47,168.00 L486.07,166.20 L487.53,162.98 L489.04,161.08 L506.06,152.48 L509.51,151.15 L509.53,151.13 L523.49,154.83 L519.72,158.71 L527.11,170.61 L522.26,176.24 L505.39,179.15 Z" fill="#e6bfc4" stroke="#ffffff" stroke-width="0.85" vector-effect="non-scaling-stroke"><title>Oldham County: -21.45 pts; Beshear 49.57%, Cameron 50.43%; 2020 Biden margin -21.45</title></path><path id="ky-21187" data-county="Owen" d="M590.76,171.27 L575.52,170.76 L574.37,163.79 L564.63,161.31 L563.00,152.44 L551.57,142.60 L568.00,134.94 L585.46,128.10 L586.80,140.05 L609.53,157.12 L590.76,171.27 Z" fill="#c75d6b" stroke="#ffffff" stroke-width="0.85" vector-effect="non-scaling-stroke"><title>Owen County: -58.52 pts; Beshear 40.55%, Cameron 59.45%; 2020 Biden margin -58.52</title></path><path id="ky-21189" data-county="Owsley" d="M733.15,299.61 L718.24,287.93 L702.87,289.03 L691.10,269.20 L697.66,272.82 L721.00,266.88 L727.01,270.54 L730.71,290.70 L733.15,299.61 Z" fill="#b92e3f" stroke="#ffffff" stroke-width="0.85" vector-effect="non-scaling-stroke"><title>Owsley County: -76.74 pts; Beshear 40.84%, Cameron 59.16%; 2020 Biden margin -76.74</title></path><path id="ky-21191" data-county="Pendleton" d="M650.37,110.01 L650.22,112.48 L650.51,115.18 L650.67,115.52 L653.55,144.33 L621.76,148.95 L615.20,119.71 L628.35,118.10 L628.59,117.99 L650.37,110.01 Z" fill="#c65866" stroke="#ffffff" stroke-width="0.85" vector-effect="non-scaling-stroke"><title>Pendleton County: -60.55 pts; Beshear 38.20%, Cameron 61.80%; 2020 Biden margin -60.55</title></path><path id="ky-21193" data-county="Perry" d="M780.64,329.82 L780.38,329.27 L778.92,329.45 L778.03,328.33 L776.18,328.31 L776.09,327.50 L774.82,327.92 L773.60,327.46 L771.28,309.51 L756.88,303.47 L753.69,295.25 L740.88,295.46 L735.38,302.26 L734.98,300.01 L733.15,299.61 L730.71,290.70 L742.23,285.49 L750.19,290.25 L769.77,277.90 L780.37,282.43 L780.03,298.45 L794.95,306.98 L788.06,315.38 L788.55,327.59 L780.64,329.82 Z" fill="#cb6875" stroke="#ffffff" stroke-width="0.85" vector-effect="non-scaling-stroke"><title>Perry County: -54.33 pts; Beshear 55.79%, Cameron 44.21%; 2020 Biden margin -54.33</title></path><path id="ky-21195" data-county="Pike" d="M873.99,243.03 L874.07,243.61 L876.24,246.91 L877.44,249.31 L882.92,252.77 L886.51,254.50 L895.64,260.13 L897.55,262.01 L897.51,262.59 L898.60,264.29 L906.59,267.63 L911.31,267.36 L912.30,266.28 L912.49,266.22 L916.00,266.84 L878.03,293.38 L876.40,294.61 L875.82,295.05 L871.11,298.60 L852.35,304.35 L847.34,306.37 L845.96,306.93 L845.95,306.93 L826.32,298.08 L827.28,296.97 L827.95,297.06 L828.89,296.46 L833.40,293.94 L843.68,275.20 L839.18,270.86 L846.16,249.59 L858.77,251.48 L873.99,243.03 Z" fill="#c65865" stroke="#ffffff" stroke-width="0.85" vector-effect="non-scaling-stroke"><title>Pike County: -60.71 pts; Beshear 45.46%, Cameron 54.54%; 2020 Biden margin -60.71</title></path><path id="ky-21197" data-county="Powell" d="M710.25,245.89 L688.64,240.85 L677.41,231.67 L681.60,220.74 L704.77,222.20 L720.93,233.11 L711.90,245.88 L711.41,245.45 L710.25,245.89 Z" fill="#d07882" stroke="#ffffff" stroke-width="0.85" vector-effect="non-scaling-stroke"><title>Powell County: -48.58 pts; Beshear 50.02%, Cameron 49.98%; 2020 Biden margin -48.58</title></path><path id="ky-21199" data-county="Pulaski" d="M593.09,301.98 L601.61,295.87 L612.36,288.20 L618.64,291.36 L643.73,312.14 L635.64,334.70 L609.81,345.53 L597.96,332.18 L587.29,334.90 L579.60,330.22 L571.38,324.40 L571.93,316.29 L582.69,309.40 L593.09,301.98 Z" fill="#c45361" stroke="#ffffff" stroke-width="0.85" vector-effect="non-scaling-stroke"><title>Pulaski County: -62.67 pts; Beshear 32.15%, Cameron 67.85%; 2020 Biden margin -62.67</title></path><path id="ky-21201" data-county="Robertson" d="M685.81,154.86 L681.16,158.18 L679.99,161.10 L665.66,158.72 L656.07,154.19 L658.63,147.61 L678.63,142.97 L685.81,154.86 Z" fill="#ca6773" stroke="#ffffff" stroke-width="0.85" vector-effect="non-scaling-stroke"><title>Robertson County: -55.06 pts; Beshear 44.17%, Cameron 55.83%; 2020 Biden margin -55.06</title></path><path id="ky-21203" data-county="Rockcastle" d="M618.64,291.36 L625.23,272.93 L633.71,274.49 L636.84,266.69 L654.24,268.60 L661.46,292.42 L647.88,301.84 L643.73,312.14 L618.64,291.36 Z" fill="#be404f" stroke="#ffffff" stroke-width="0.85" vector-effect="non-scaling-stroke"><title>Rockcastle County: -69.92 pts; Beshear 29.11%, Cameron 70.89%; 2020 Biden margin -69.92</title></path><path id="ky-21205" data-county="Rowan" d="M744.05,208.63 L736.44,206.68 L720.44,190.62 L735.46,181.01 L741.83,167.83 L754.92,175.13 L758.98,186.19 L766.30,190.05 L764.07,199.08 L744.05,208.63 Z" fill="#e6c0c5" stroke="#ffffff" stroke-width="0.85" vector-effect="non-scaling-stroke"><title>Rowan County: -21.0 pts; Beshear 60.75%, Cameron 39.25%; 2020 Biden margin -21.00</title></path><path id="ky-21207" data-county="Russell" d="M555.24,308.11 L565.67,317.94 L571.93,316.29 L571.38,324.40 L579.60,330.22 L552.78,346.51 L546.43,350.19 L535.05,347.01 L528.07,341.92 L533.10,338.73 L536.18,330.31 L555.24,308.11 Z" fill="#bf4251" stroke="#ffffff" stroke-width="0.85" vector-effect="non-scaling-stroke"><title>Russell County: -69.1 pts; Beshear 30.03%, Cameron 69.97%; 2020 Biden margin -69.10</title></path><path id="ky-21209" data-county="Scott" d="M592.57,189.69 L591.97,188.18 L590.86,172.96 L590.76,171.27 L609.53,157.12 L611.87,154.85 L612.25,154.79 L625.58,174.57 L626.86,177.49 L625.94,177.85 L625.71,179.39 L630.50,188.23 L604.83,197.42 L604.31,198.96 L592.57,189.69 Z" fill="#e3b6bb" stroke="#ffffff" stroke-width="0.85" vector-effect="non-scaling-stroke"><title>Scott County: -24.85 pts; Beshear 54.58%, Cameron 45.42%; 2020 Biden margin -24.85</title></path><path id="ky-21211" data-county="Shelby" d="M510.57,195.32 L512.82,181.68 L505.39,179.15 L522.26,176.24 L527.11,170.61 L560.60,173.25 L557.54,197.48 L548.40,208.25 L533.06,202.13 L510.57,195.32 Z" fill="#dfa9b0" stroke="#ffffff" stroke-width="0.85" vector-effect="non-scaling-stroke"><title>Shelby County: -29.63 pts; Beshear 47.58%, Cameron 52.40%; 2020 Biden margin -29.63</title></path><path id="ky-21213" data-county="Simpson" d="M388.04,370.78 L387.61,370.79 L387.47,370.80 L387.46,370.80 L376.82,372.94 L376.81,372.93 L372.02,370.75 L371.86,370.75 L353.97,371.11 L353.46,371.13 L361.97,348.20 L371.25,343.66 L374.57,349.85 L396.02,352.55 L395.40,356.19 L394.74,370.93 L388.04,370.78 Z" fill="#d9979f" stroke="#ffffff" stroke-width="0.85" vector-effect="non-scaling-stroke"><title>Simpson County: -36.73 pts; Beshear 41.21%, Cameron 58.79%; 2020 Biden margin -36.73</title></path><path id="ky-21215" data-county="Spencer" d="M502.93,213.71 L510.01,198.73 L510.57,195.32 L533.06,202.13 L548.40,208.25 L540.63,215.93 L513.41,219.66 L502.93,213.71 Z" fill="#cb6975" stroke="#ffffff" stroke-width="0.85" vector-effect="non-scaling-stroke"><title>Spencer County: -54.29 pts; Beshear 37.04%, Cameron 62.96%; 2020 Biden margin -54.29</title></path><path id="ky-21217" data-county="Taylor" d="M505.62,275.31 L520.38,274.85 L531.37,280.64 L540.21,275.37 L551.67,281.41 L540.95,293.52 L523.41,301.69 L518.94,307.36 L504.24,287.27 L491.75,279.24 L491.87,274.81 L505.62,275.31 Z" fill="#cd717c" stroke="#ffffff" stroke-width="0.85" vector-effect="non-scaling-stroke"><title>Taylor County: -51.24 pts; Beshear 40.80%, Cameron 59.20%; 2020 Biden margin -51.24</title></path><path id="ky-21219" data-county="Todd" d="M312.20,371.89 L298.64,371.95 L298.58,371.95 L296.63,371.96 L293.03,371.97 L292.66,371.97 L286.27,371.99 L295.26,321.44 L296.33,325.18 L319.45,322.78 L318.55,371.77 L312.20,371.89 L312.20,371.89 Z" fill="#cc6b77" stroke="#ffffff" stroke-width="0.85" vector-effect="non-scaling-stroke"><title>Todd County: -53.27 pts; Beshear 34.07%, Cameron 65.85%; 2020 Biden margin -53.27</title></path><path id="ky-21221" data-county="Trigg" d="M244.25,372.54 L225.59,372.96 L226.02,369.39 L206.98,367.83 L200.09,367.70 L198.49,363.59 L195.37,359.60 L189.91,345.52 L222.80,334.62 L239.65,329.69 L248.29,333.88 L244.25,372.54 Z" fill="#ce747f" stroke="#ffffff" stroke-width="0.85" vector-effect="non-scaling-stroke"><title>Trigg County: -50.11 pts; Beshear 37.16%, Cameron 62.84%; 2020 Biden margin -50.11</title></path><path id="ky-21223" data-county="Trimble" d="M540.58,143.93 L523.49,154.83 L509.53,151.13 L510.69,150.25 L511.36,149.18 L511.57,148.52 L511.54,146.50 L510.17,143.78 L508.78,141.01 L506.71,131.77 L507.28,129.40 L509.40,127.04 L510.81,126.41 L512.11,126.15 L521.22,125.75 L540.58,143.93 Z" fill="#cd707c" stroke="#ffffff" stroke-width="0.85" vector-effect="non-scaling-stroke"><title>Trimble County: -51.27 pts; Beshear 44.09%, Cameron 55.91%; 2020 Biden margin -51.27</title></path><path id="ky-21225" data-county="Union" d="M192.72,262.57 L192.72,262.56 L191.95,261.14 L189.97,255.70 L189.57,252.79 L189.81,251.97 L190.58,250.74 L194.01,246.68 L199.86,243.91 L201.38,242.82 L202.39,241.64 L203.09,240.49 L203.79,238.96 L205.08,236.17 L206.34,235.86 L207.82,236.07 L211.14,237.49 L211.79,238.02 L214.97,238.80 L219.30,235.19 L219.65,234.00 L219.19,231.67 L218.89,230.99 L218.35,230.26 L216.90,229.19 L215.85,228.11 L215.41,227.28 L215.31,226.31 L215.40,225.80 L215.78,225.22 L216.88,224.11 L230.06,240.49 L237.03,244.56 L239.51,255.04 L217.93,272.11 L216.23,273.62 L206.54,265.74 L201.17,270.65 L200.94,269.43 L199.89,267.90 L194.11,263.28 L192.74,262.58 L192.73,262.57 L192.72,262.57 Z" fill="#cd6e7a" stroke="#ffffff" stroke-width="0.85" vector-effect="non-scaling-stroke"><title>Union County: -52.24 pts; Beshear 44.97%, Cameron 55.03%; 2020 Biden margin -52.24</title></path><path id="ky-21227" data-county="Warren" d="M396.18,310.01 L409.95,320.48 L417.36,317.73 L429.69,322.77 L423.44,337.68 L395.40,356.19 L396.02,352.55 L374.57,349.85 L371.25,343.66 L363.88,329.96 L370.48,308.36 L396.18,310.01 Z" fill="#e9cbcf" stroke="#ffffff" stroke-width="0.85" vector-effect="non-scaling-stroke"><title>Warren County: -16.8 pts; Beshear 52.12%, Cameron 47.87%; 2020 Biden margin -16.80</title></path><path id="ky-21229" data-county="Washington" d="M513.19,244.22 L525.24,232.42 L542.40,224.62 L556.74,225.34 L560.26,229.67 L557.39,250.29 L556.78,255.88 L530.14,255.92 L516.49,250.94 L513.19,244.22 Z" fill="#d27f8a" stroke="#ffffff" stroke-width="0.85" vector-effect="non-scaling-stroke"><title>Washington County: -45.59 pts; Beshear 43.02%, Cameron 56.96%; 2020 Biden margin -45.59</title></path><path id="ky-21231" data-county="Wayne" d="M585.51,376.47 L585.50,376.47 L576.78,376.11 L576.78,376.10 L563.27,375.18 L559.84,358.54 L552.78,346.51 L579.60,330.22 L587.29,334.90 L597.96,332.18 L609.81,345.53 L609.68,351.71 L598.57,360.49 L586.32,376.49 L585.51,376.47 Z" fill="#c55462" stroke="#ffffff" stroke-width="0.85" vector-effect="non-scaling-stroke"><title>Wayne County: -62.01 pts; Beshear 37.81%, Cameron 62.19%; 2020 Biden margin -62.01</title></path><path id="ky-21233" data-county="Webster" d="M230.26,288.80 L228.55,288.44 L229.49,286.99 L230.49,287.22 L231.71,285.42 L219.74,283.22 L216.23,273.62 L217.93,272.11 L239.51,255.04 L267.57,253.97 L281.67,263.07 L267.03,272.83 L256.05,275.74 L230.26,288.80 Z" fill="#cd707b" stroke="#ffffff" stroke-width="0.85" vector-effect="non-scaling-stroke"><title>Webster County: -51.63 pts; Beshear 41.32%, Cameron 58.68%; 2020 Biden margin -51.63</title></path><path id="ky-21235" data-county="Whitley" d="M685.78,378.24 L679.10,378.09 L679.07,378.08 L650.98,377.84 L641.56,367.85 L636.58,355.67 L642.75,336.28 L666.87,335.10 L669.93,347.07 L682.51,361.94 L692.01,366.63 L682.66,371.91 L685.78,378.24 Z" fill="#c24c5a" stroke="#ffffff" stroke-width="0.85" vector-effect="non-scaling-stroke"><title>Whitley County: -65.22 pts; Beshear 32.74%, Cameron 67.26%; 2020 Biden margin -65.22</title></path><path id="ky-21237" data-county="Wolfe" d="M711.90,245.88 L720.93,233.11 L736.88,228.82 L764.20,246.33 L766.38,247.91 L764.64,250.17 L765.79,251.38 L745.87,248.90 L733.69,255.03 L711.90,245.88 Z" fill="#d58892" stroke="#ffffff" stroke-width="0.85" vector-effect="non-scaling-stroke"><title>Wolfe County: -42.23 pts; Beshear 57.26%, Cameron 42.74%; 2020 Biden margin -42.23</title></path><path id="ky-21239" data-county="Woodford" d="M604.31,198.96 L600.51,210.53 L600.20,212.18 L594.36,228.81 L581.58,218.97 L584.22,216.13 L576.17,198.90 L592.57,189.69 L604.31,198.96 Z" fill="#edd7da" stroke="#ffffff" stroke-width="0.85" vector-effect="non-scaling-stroke"><title>Woodford County: -12.04 pts; Beshear 59.25%, Cameron 40.75%; 2020 Biden margin -12.04</title></path>
  </g>
  <g aria-label="Legend">
    <text class="legend" x="24" y="528">Pres 2020 Margin</text>
    <rect x="270" y="514" width="42" height="18" fill="#b2182b" /><rect x="312" y="514" width="42" height="18" fill="#bd3c4c" /><rect x="354" y="514" width="42" height="18" fill="#c8606d" /><rect x="396" y="514" width="42" height="18" fill="#d3848e" /><rect x="438" y="514" width="42" height="18" fill="#dfa8af" /><rect x="480" y="514" width="42" height="18" fill="#eaccd0" /><rect x="522" y="514" width="42" height="18" fill="#f5f0f1" /><rect x="564" y="514" width="42" height="18" fill="#97b6d5" /><rect x="606" y="514" width="42" height="18" fill="#2166ac" />
    <rect x="270" y="514" width="378" height="18" fill="none" stroke="#1f2937" stroke-width="0.75"/>
    <text x="270" y="553" text-anchor="middle" class="legend">-85 pts</text><text x="438" y="553" text-anchor="middle" class="legend">-30 pts</text><text x="606" y="553" text-anchor="middle" class="legend">25 pts</text>
  </g>
  <text class="source" x="24" y="570">Generated for the 2023 Kentucky Governor NCT mod. Hover a county for exact values.</text>
</svg>
