<svg xmlns="http://www.w3.org/2000/svg" viewBox="0 0 940 520" role="img" aria-labelledby="title desc">
  <title id="title">2023 Kentucky Governor County Map</title>
  <desc id="desc">Kentucky county boundaries colored by the 2023 governor baseline: blue for Beshear, red for Cameron.</desc>
  <style>
    path:hover { stroke: #000000; stroke-width: 1.8; }
  </style>
  <rect width="940" height="520" fill="#e9fbff"/>
  <g aria-label="Kentucky counties">
    <path id="ky-21001" data-county="Adair" d="M541.90,236.42 L554.77,242.77 L556.39,251.21 L537.07,273.70 L533.95,282.24 L507.82,280.68 L498.89,260.31 L516.33,253.31 L519.60,250.45 L524.13,244.70 L541.90,236.42 Z" fill="#d69fa3" stroke="#111111" stroke-width="0.8" vector-effect="non-scaling-stroke"><title>Adair County: Beshear 31.94%, Cameron 68.06%, margin -36.12</title></path><path id="ky-21003" data-county="Allen" d="M445.45,317.51 L438.75,317.27 L438.70,317.27 L438.08,317.22 L433.05,316.85 L432.90,316.86 L419.15,316.21 L418.28,316.16 L418.21,316.16 L416.94,316.07 L416.91,316.06 L416.59,316.03 L416.23,316.02 L403.04,315.09 L393.73,314.88 L394.40,299.94 L422.82,281.17 L445.39,306.29 L445.45,317.51 Z" fill="#d39497" stroke="#111111" stroke-width="0.8" vector-effect="non-scaling-stroke"><title>Allen County: Beshear 29.60%, Cameron 70.40%, margin -40.80</title></path><path id="ky-21005" data-county="Anderson" d="M543.37,166.60 L541.58,157.78 L549.45,150.00 L558.72,139.09 L577.60,140.53 L585.76,157.99 L568.94,160.04 L557.91,167.33 L543.37,166.60 Z" fill="#ebdee4" stroke="#111111" stroke-width="0.8" vector-effect="non-scaling-stroke"><title>Anderson County: Beshear 45.34%, Cameron 54.66%, margin -9.32</title></path><path id="ky-21007" data-county="Ballard" d="M73.97,279.98 L70.17,275.44 L66.16,272.93 L65.31,271.97 L64.67,270.84 L64.25,268.89 L64.39,267.82 L65.06,265.95 L65.51,265.22 L65.97,264.50 L75.66,253.64 L81.04,249.20 L85.84,246.65 L87.94,246.14 L89.89,245.99 L93.87,246.57 L107.83,278.78 L87.28,282.90 L73.97,279.98 Z" fill="#ddb3b8" stroke="#111111" stroke-width="0.8" vector-effect="non-scaling-stroke"><title>Ballard County: Beshear 36.28%, Cameron 63.72%, margin -27.44</title></path><path id="ky-21009" data-county="Barren" d="M429.15,266.07 L433.81,266.99 L435.93,253.45 L453.78,255.68 L473.05,253.14 L473.64,292.17 L445.39,306.29 L422.82,281.17 L429.15,266.07 Z" fill="#e5cdd3" stroke="#111111" stroke-width="0.8" vector-effect="non-scaling-stroke"><title>Barren County: Beshear 41.78%, Cameron 58.21%, margin -16.43</title></path><path id="ky-21011" data-county="Bath" d="M714.98,153.32 L714.66,153.28 L714.30,153.91 L713.91,154.03 L713.47,153.71 L712.88,153.60 L712.88,153.40 L712.42,153.18 L712.15,153.52 L711.84,153.59 L711.63,153.24 L711.29,153.58 L710.86,153.61 L710.46,153.96 L710.76,154.24 L710.21,154.82 L709.94,154.77 L709.33,155.31 L709.04,154.58 L694.54,138.20 L683.06,131.59 L698.23,119.21 L698.47,119.12 L713.09,119.64 L722.46,134.10 L723.38,133.23 L723.81,132.13 L740.02,148.41 L730.31,153.04 L714.98,153.32 Z" fill="#c9cce8" stroke="#111111" stroke-width="0.8" vector-effect="non-scaling-stroke"><title>Bath County: Beshear 55.81%, Cameron 44.19%, margin +11.62</title></path><path id="ky-21013" data-county="Bell" d="M744.52,313.17 L740.12,312.50 L736.65,313.04 L722.11,318.90 L719.03,320.79 L718.83,321.29 L717.21,322.96 L688.68,322.28 L685.52,315.87 L695.00,310.51 L704.42,298.87 L730.24,284.66 L729.24,278.58 L736.22,280.10 L737.43,280.75 L738.80,280.64 L738.76,282.44 L740.57,282.88 L741.14,283.87 L739.31,284.75 L739.84,285.75 L741.10,285.76 L738.49,296.23 L744.52,313.17 Z" fill="#e3c6cb" stroke="#111111" stroke-width="0.8" vector-effect="non-scaling-stroke"><title>Bell County: Beshear 40.24%, Cameron 59.74%, margin -19.50</title></path><path id="ky-21015" data-county="Boone" d="M605.24,26.41 L606.28,26.68 L609.33,49.85 L607.23,59.05 L605.53,58.97 L602.42,60.49 L601.95,62.01 L586.38,52.67 L587.01,51.05 L587.09,49.80 L586.56,49.24 L583.75,43.79 L579.44,35.42 L575.97,31.93 L574.73,30.68 L573.77,29.30 L573.74,28.71 L574.75,27.64 L581.61,23.41 L582.92,22.99 L586.78,21.82 L589.27,19.06 L590.73,18.10 L591.96,18.00 L593.40,18.36 L595.00,19.24 L598.43,23.15 L599.01,23.59 L605.24,26.41 Z" fill="#e9d7dd" stroke="#111111" stroke-width="0.8" vector-effect="non-scaling-stroke"><title>Boone County: Beshear 43.96%, Cameron 56.03%, margin -12.07</title></path><path id="ky-21017" data-county="Bourbon" d="M657.36,110.23 L666.15,121.67 L683.06,131.59 L670.86,140.74 L646.38,146.46 L635.15,140.93 L632.66,129.71 L627.81,120.75 L639.36,120.53 L657.36,110.23 Z" fill="#d6d9ee" stroke="#111111" stroke-width="0.8" vector-effect="non-scaling-stroke"><title>Bourbon County: Beshear 53.96%, Cameron 46.04%, margin +7.92</title></path><path id="ky-21019" data-county="Boyd" d="M839.11,94.30 L847.64,104.28 L847.33,104.77 L847.24,105.34 L847.44,108.92 L847.44,108.93 L847.72,109.83 L850.24,116.88 L849.91,123.06 L849.48,124.13 L848.79,125.14 L847.49,125.25 L846.39,125.03 L823.80,125.45 L826.47,111.32 L821.04,109.97 L839.11,94.30 Z" fill="#e7eaf6" stroke="#111111" stroke-width="0.8" vector-effect="non-scaling-stroke"><title>Boyd County: Beshear 51.52%, Cameron 48.48%, margin +3.04</title></path><path id="ky-21021" data-county="Boyle" d="M602.17,197.89 L585.19,205.70 L579.69,208.18 L556.82,208.50 L557.95,198.27 L558.56,192.61 L591.87,188.54 L602.17,197.89 Z" fill="#dee0f1" stroke="#111111" stroke-width="0.8" vector-effect="non-scaling-stroke"><title>Boyle County: Beshear 52.89%, Cameron 47.11%, margin +5.78</title></path><path id="ky-21023" data-county="Bracken" d="M675.15,62.81 L682.96,60.85 L684.94,60.81 L687.10,61.26 L691.85,63.10 L691.86,63.10 L681.43,83.84 L661.17,88.55 L655.31,88.93 L656.02,85.23 L653.10,56.02 L653.65,57.21 L655.12,58.63 L655.99,59.00 L671.94,62.82 L674.17,62.81 L675.15,62.81 Z" fill="#e3c4c9" stroke="#111111" stroke-width="0.8" vector-effect="non-scaling-stroke"><title>Bracken County: Beshear 39.86%, Cameron 60.14%, margin -20.28</title></path><path id="ky-21025" data-county="Breathitt" d="M784.55,225.18 L773.80,220.59 L753.96,233.11 L745.89,228.28 L734.22,233.57 L730.47,213.14 L737.23,197.41 L749.58,191.20 L769.76,193.71 L783.29,201.18 L788.66,198.16 L805.45,213.50 L791.93,210.76 L783.32,218.97 L784.55,225.18 Z" fill="#a3a8d6" stroke="#111111" stroke-width="0.8" vector-effect="non-scaling-stroke"><title>Breathitt County: Beshear 61.17%, Cameron 38.83%, margin +22.34</title></path><path id="ky-21027" data-county="Breckinridge" d="M372.16,206.23 L366.67,194.63 L362.05,179.06 L364.73,173.16 L365.59,173.28 L367.23,173.00 L370.75,171.28 L380.20,158.21 L380.22,151.11 L380.60,149.87 L381.14,149.36 L381.80,149.14 L384.28,148.98 L413.78,169.05 L424.65,178.34 L409.91,202.76 L401.48,206.42 L382.79,199.35 L372.16,206.23 Z" fill="#e6ced4" stroke="#111111" stroke-width="0.8" vector-effect="non-scaling-stroke"><title>Breckinridge County: Beshear 41.96%, Cameron 58.04%, margin -16.08</title></path><path id="ky-21029" data-county="Bullitt" d="M487.38,144.96 L495.28,145.65 L510.55,140.35 L503.37,155.54 L484.10,174.76 L473.82,176.81 L461.88,168.78 L459.90,160.92 L449.98,154.58 L461.40,148.31 L476.82,144.05 L477.94,144.14 L487.38,144.96 Z" fill="#e7d3d9" stroke="#111111" stroke-width="0.8" vector-effect="non-scaling-stroke"><title>Bullitt County: Beshear 42.96%, Cameron 57.04%, margin -14.08</title></path><path id="ky-21031" data-county="Butler" d="M369.14,226.80 L369.87,226.35 L384.72,230.23 L386.86,235.15 L395.18,253.13 L369.14,251.46 L362.45,273.35 L342.13,266.61 L330.71,265.12 L336.36,262.81 L335.72,248.08 L345.48,234.37 L352.34,237.17 L369.14,226.80 Z" fill="#d7a0a4" stroke="#111111" stroke-width="0.8" vector-effect="non-scaling-stroke"><title>Butler County: Beshear 32.15%, Cameron 67.85%, margin -35.70</title></path><path id="ky-21033" data-county="Caldwell" d="M228.50,228.21 L227.26,230.04 L226.25,229.81 L225.30,231.27 L227.03,231.64 L222.59,235.03 L228.03,244.66 L242.82,255.58 L239.22,270.76 L236.55,273.08 L219.47,278.07 L199.84,252.55 L193.46,251.96 L194.26,246.89 L228.50,228.21 Z" fill="#e3c5ca" stroke="#111111" stroke-width="0.8" vector-effect="non-scaling-stroke"><title>Caldwell County: Beshear 39.99%, Cameron 60.01%, margin -20.02</title></path><path id="ky-21035" data-county="Calloway" d="M196.46,311.60 L196.74,313.78 L198.24,316.64 L199.48,320.54 L200.61,325.43 L200.99,327.94 L200.35,331.13 L200.15,331.54 L198.52,333.12 L198.51,333.12 L166.71,332.72 L166.10,332.72 L165.52,332.71 L155.34,332.69 L151.33,332.64 L151.04,332.67 L148.66,332.65 L146.70,332.65 L147.10,303.01 L191.67,303.39 L194.83,307.43 L196.46,311.60 Z" fill="#ece2e9" stroke="#111111" stroke-width="0.8" vector-effect="non-scaling-stroke"><title>Calloway County: Beshear 46.26%, Cameron 53.74%, margin -7.48</title></path><path id="ky-21037" data-county="Campbell" d="M620.26,24.23 L620.74,24.04 L621.73,23.35 L628.97,24.32 L641.61,32.27 L642.40,32.91 L643.14,33.51 L644.21,34.76 L652.56,48.23 L652.84,49.74 L652.80,50.44 L630.72,58.53 L625.34,53.12 L626.84,36.29 L620.26,24.23 Z" fill="#d4d7ed" stroke="#111111" stroke-width="0.8" vector-effect="non-scaling-stroke"><title>Campbell County: Beshear 54.19%, Cameron 45.80%, margin +8.39</title></path><path id="ky-21039" data-county="Carlisle" d="M73.97,279.99 L73.97,279.98 L87.28,282.90 L107.83,278.78 L108.20,279.64 L108.16,300.30 L71.26,298.86 L71.26,298.85 L64.64,295.57 L64.72,295.14 L64.88,292.85 L68.39,291.50 L73.97,279.99 Z" fill="#d4979b" stroke="#111111" stroke-width="0.8" vector-effect="non-scaling-stroke"><title>Carlisle County: Beshear 30.33%, Cameron 69.67%, margin -39.34</title></path><path id="ky-21041" data-county="Carroll" d="M552.67,83.47 L541.53,84.82 L521.91,66.39 L527.15,66.16 L528.79,66.31 L530.76,66.71 L532.23,67.42 L534.66,70.55 L536.18,71.74 L537.58,72.20 L539.02,72.68 L541.03,72.62 L542.97,72.12 L545.05,71.30 L548.83,68.73 L549.54,68.02 L558.66,63.67 L569.32,75.70 L552.67,83.47 Z" fill="#efeaf1" stroke="#111111" stroke-width="0.8" vector-effect="non-scaling-stroke"><title>Carroll County: Beshear 47.95%, Cameron 52.05%, margin -4.10</title></path><path id="ky-21043" data-county="Carter" d="M758.75,116.44 L771.91,114.09 L771.13,103.75 L779.55,94.51 L793.18,99.09 L801.88,107.01 L821.04,109.97 L826.47,111.32 L823.80,125.45 L808.27,133.61 L793.02,131.89 L780.41,122.98 L770.29,131.56 L762.87,127.65 L758.75,116.44 Z" fill="#eee7ee" stroke="#111111" stroke-width="0.8" vector-effect="non-scaling-stroke"><title>Carter County: Beshear 47.27%, Cameron 52.71%, margin -5.44</title></path><path id="ky-21045" data-county="Casey" d="M556.39,251.21 L554.77,242.77 L541.90,236.42 L552.77,224.14 L556.82,208.50 L579.69,208.18 L579.28,222.54 L594.49,230.52 L594.75,244.99 L584.21,252.52 L573.30,259.50 L566.96,261.17 L556.39,251.21 Z" fill="#ce8386" stroke="#111111" stroke-width="0.8" vector-effect="non-scaling-stroke"><title>Casey County: Beshear 26.08%, Cameron 73.92%, margin -47.84</title></path><path id="ky-21047" data-county="Christian" d="M282.83,315.95 L282.39,315.96 L274.48,316.01 L273.21,316.01 L271.85,316.04 L256.80,316.23 L256.58,316.23 L247.51,316.36 L247.51,316.36 L241.21,316.51 L245.31,277.32 L236.55,273.08 L239.22,270.76 L242.82,255.58 L261.73,260.80 L284.06,254.64 L292.91,264.72 L283.80,315.95 L282.83,315.95 Z" fill="#e7d1d7" stroke="#111111" stroke-width="0.8" vector-effect="non-scaling-stroke"><title>Christian County: Beshear 42.68%, Cameron 57.30%, margin -14.62</title></path><path id="ky-21049" data-county="Clark" d="M640.32,167.27 L646.38,146.46 L670.86,140.74 L674.37,146.05 L684.44,162.66 L680.20,173.74 L670.88,171.90 L640.32,167.27 Z" fill="#e6e9f6" stroke="#111111" stroke-width="0.8" vector-effect="non-scaling-stroke"><title>Clark County: Beshear 51.63%, Cameron 48.35%, margin +3.28</title></path><path id="ky-21051" data-county="Clay" d="M738.95,245.28 L733.79,253.41 L738.80,280.64 L737.43,280.75 L736.22,280.10 L729.24,278.58 L695.74,266.80 L684.12,252.54 L687.13,243.54 L706.00,231.87 L721.58,230.75 L736.69,242.59 L738.55,243.00 L738.95,245.28 Z" fill="#dcb0b5" stroke="#111111" stroke-width="0.8" vector-effect="non-scaling-stroke"><title>Clay County: Beshear 35.63%, Cameron 64.37%, margin -28.74</title></path><path id="ky-21053" data-county="Clinton" d="M564.52,319.18 L551.26,318.28 L550.11,318.21 L528.69,317.73 L528.69,317.73 L526.35,317.85 L532.25,303.73 L535.93,290.63 L547.46,293.86 L553.89,290.12 L561.05,302.31 L564.52,319.18 Z" fill="#cb7b7d" stroke="#111111" stroke-width="0.8" vector-effect="non-scaling-stroke"><title>Clinton County: Beshear 24.33%, Cameron 75.67%, margin -51.34</title></path><path id="ky-21055" data-county="Crittenden" d="M228.50,228.21 L194.26,246.89 L193.46,251.96 L181.84,255.82 L178.81,240.85 L162.23,225.19 L165.54,222.28 L167.68,220.94 L171.36,219.51 L174.51,219.02 L194.93,217.01 L197.41,215.14 L197.56,213.26 L197.56,213.24 L203.00,208.26 L212.82,216.25 L216.38,225.98 L228.50,228.21 Z" fill="#daa9ad" stroke="#111111" stroke-width="0.8" vector-effect="non-scaling-stroke"><title>Crittenden County: Beshear 34.07%, Cameron 65.93%, margin -31.86</title></path><path id="ky-21057" data-county="Cumberland" d="M507.82,280.68 L533.95,282.24 L528.85,285.47 L535.93,290.63 L532.25,303.73 L526.35,317.85 L509.65,318.72 L490.65,294.96 L507.82,280.68 Z" fill="#ce8588" stroke="#111111" stroke-width="0.8" vector-effect="non-scaling-stroke"><title>Cumberland County: Beshear 26.43%, Cameron 73.57%, margin -47.14</title></path><path id="ky-21059" data-county="Daviess" d="M275.17,192.05 L291.45,180.57 L285.29,175.92 L287.80,166.50 L291.69,169.04 L292.48,169.55 L299.70,173.00 L307.98,179.28 L308.44,179.91 L309.57,180.25 L310.53,180.29 L312.97,179.66 L314.54,178.66 L315.68,177.49 L316.87,174.94 L318.53,169.79 L318.58,168.70 L318.25,167.52 L318.72,166.52 L319.77,165.54 L322.52,163.98 L326.25,162.73 L326.26,162.73 L341.10,173.36 L344.74,185.61 L345.44,193.21 L329.84,198.36 L319.20,206.65 L292.64,199.37 L275.17,192.05 Z" fill="#eaecf7" stroke="#111111" stroke-width="0.8" vector-effect="non-scaling-stroke"><title>Daviess County: Beshear 51.11%, Cameron 48.89%, margin +2.22</title></path><path id="ky-21061" data-county="Edmonson" d="M386.86,235.15 L423.91,233.42 L436.80,247.73 L435.93,253.45 L433.81,266.99 L429.15,266.07 L416.65,260.96 L409.14,263.74 L395.18,253.13 L386.86,235.15 Z" fill="#dfb9bd" stroke="#111111" stroke-width="0.8" vector-effect="non-scaling-stroke"><title>Edmonson County: Beshear 37.38%, Cameron 62.54%, margin -25.16</title></path><path id="ky-21063" data-county="Elliott" d="M808.27,133.61 L812.52,141.16 L796.70,153.59 L776.21,153.16 L768.03,140.71 L770.29,131.56 L780.41,122.98 L793.02,131.89 L808.27,133.61 Z" fill="#d9dcef" stroke="#111111" stroke-width="0.8" vector-effect="non-scaling-stroke"><title>Elliott County: Beshear 53.48%, Cameron 46.52%, margin +6.96</title></path><path id="ky-21065" data-county="Estill" d="M691.66,208.78 L684.57,204.20 L669.69,206.00 L670.88,171.90 L680.20,173.74 L691.58,183.04 L713.48,188.15 L701.35,194.53 L691.66,208.78 Z" fill="#e6cfd5" stroke="#111111" stroke-width="0.8" vector-effect="non-scaling-stroke"><title>Estill County: Beshear 42.17%, Cameron 57.83%, margin -15.66</title></path><path id="ky-21067" data-county="Fayette" d="M632.66,129.71 L635.15,140.93 L646.38,146.46 L640.32,167.27 L628.63,172.60 L623.45,161.55 L601.95,153.98 L602.26,152.31 L606.12,140.59 L606.64,139.03 L632.66,129.71 Z" fill="#585fb3" stroke="#111111" stroke-width="0.8" vector-effect="non-scaling-stroke"><title>Fayette County: Beshear 71.75%, Cameron 28.24%, margin +43.51</title></path><path id="ky-21069" data-county="Fleming" d="M722.46,134.10 L713.09,119.64 L698.47,119.12 L682.81,102.21 L684.00,99.26 L688.72,95.90 L697.17,100.17 L723.02,91.96 L730.38,103.31 L745.49,109.03 L739.03,122.39 L723.81,132.13 L723.38,133.23 L722.46,134.10 Z" fill="#e6cfd4" stroke="#111111" stroke-width="0.8" vector-effect="non-scaling-stroke"><title>Fleming County: Beshear 42.13%, Cameron 57.87%, margin -15.74</title></path><path id="ky-21071" data-county="Floyd" d="M808.20,215.48 L813.75,209.11 L806.38,188.16 L827.47,183.43 L842.05,187.70 L851.22,191.90 L844.14,213.46 L848.71,217.85 L838.29,236.84 L833.72,239.40 L828.78,236.70 L826.96,222.47 L808.20,215.48 Z" fill="#bfc3e3" stroke="#111111" stroke-width="0.8" vector-effect="non-scaling-stroke"><title>Floyd County: Beshear 57.14%, Cameron 42.85%, margin +14.29</title></path><path id="ky-21073" data-county="Franklin" d="M592.38,112.53 L592.49,114.24 L593.61,129.66 L594.22,131.19 L577.60,140.53 L558.72,139.09 L561.82,114.53 L576.94,112.01 L592.38,112.53 Z" fill="#6f75be" stroke="#111111" stroke-width="0.8" vector-effect="non-scaling-stroke"><title>Franklin County: Beshear 68.52%, Cameron 31.48%, margin +37.04</title></path><path id="ky-21075" data-county="Fulton" d="M21.85,332.99 L19.33,329.75 L18.17,327.50 L18.00,326.52 L18.56,325.14 L20.24,323.60 L21.02,323.26 L23.22,323.13 L26.49,323.70 L28.31,324.24 L28.99,324.67 L29.67,325.65 L30.34,327.21 L30.61,328.48 L30.56,329.21 L29.78,331.14 L28.27,333.05 L27.39,333.04 L26.74,333.03 L21.85,332.99 Z M105.58,332.43 L100.85,332.48 L90.18,332.51 L85.94,332.46 L85.14,332.46 L84.71,332.45 L81.83,332.42 L78.95,332.40 L77.38,332.39 L75.23,332.37 L71.98,332.35 L71.71,332.34 L66.54,332.24 L66.52,332.24 L60.81,332.11 L52.77,332.00 L52.39,331.97 L44.81,332.39 L44.81,332.39 L43.55,332.51 L40.76,332.73 L40.56,332.77 L37.93,332.88 L36.34,332.89 L38.32,328.22 L39.80,324.05 L41.20,319.24 L42.49,317.91 L45.08,317.20 L47.00,317.07 L47.10,317.06 L48.69,318.49 L50.92,321.63 L53.65,324.29 L55.04,325.03 L57.83,324.83 L58.92,324.53 L60.56,323.25 L61.86,320.70 L62.06,318.72 L62.45,317.45 L63.63,316.00 L65.17,314.89 L65.18,314.88 L82.78,321.82 L97.43,323.64 L105.58,332.43 Z" fill="#eadce2" stroke="#111111" stroke-width="0.8" vector-effect="non-scaling-stroke"><title>Fulton County: Beshear 44.89%, Cameron 55.11%, margin -10.22</title></path><path id="ky-21077" data-county="Gallatin" d="M601.95,62.01 L587.61,63.45 L587.01,68.77 L569.32,75.70 L558.66,63.67 L562.02,62.08 L563.37,61.80 L564.70,61.83 L568.16,62.26 L580.04,60.85 L583.73,59.51 L586.38,52.67 L601.95,62.01 Z" fill="#e4c8cd" stroke="#111111" stroke-width="0.8" vector-effect="non-scaling-stroke"><title>Gallatin County: Beshear 40.71%, Cameron 59.29%, margin -18.58</title></path><path id="ky-21079" data-county="Garrard" d="M595.20,176.38 L600.08,175.09 L612.63,186.68 L617.94,181.84 L639.08,209.23 L635.92,217.13 L627.32,215.56 L602.17,197.89 L591.87,188.54 L597.60,187.38 L595.20,176.38 Z" fill="#dfbabf" stroke="#111111" stroke-width="0.8" vector-effect="non-scaling-stroke"><title>Garrard County: Beshear 37.69%, Cameron 62.31%, margin -24.62</title></path><path id="ky-21081" data-county="Grant" d="M607.23,59.05 L609.36,60.36 L617.15,60.27 L623.81,89.90 L614.17,95.82 L613.77,95.89 L611.41,98.19 L588.37,80.88 L587.01,68.77 L587.61,63.45 L601.95,62.01 L602.42,60.49 L605.53,58.97 L607.23,59.05 Z" fill="#dbaeb2" stroke="#111111" stroke-width="0.8" vector-effect="non-scaling-stroke"><title>Grant County: Beshear 35.16%, Cameron 64.82%, margin -29.66</title></path><path id="ky-21083" data-county="Graves" d="M146.68,332.65 L143.98,332.60 L143.94,332.60 L143.46,332.60 L143.45,332.61 L140.03,332.56 L136.21,332.54 L126.24,332.51 L119.81,332.46 L115.97,332.44 L109.78,332.45 L107.74,332.44 L108.16,300.30 L108.20,279.64 L147.29,280.21 L147.10,303.01 L146.70,332.65 L146.68,332.65 Z" fill="#ddb4b9" stroke="#111111" stroke-width="0.8" vector-effect="non-scaling-stroke"><title>Graves County: Beshear 36.49%, Cameron 63.51%, margin -27.02</title></path><path id="ky-21085" data-county="Grayson" d="M369.87,226.35 L363.69,208.40 L372.16,206.23 L382.79,199.35 L401.48,206.42 L409.91,202.76 L429.08,205.90 L436.98,219.83 L440.37,226.42 L434.04,228.02 L434.97,231.88 L423.91,233.42 L386.86,235.15 L384.72,230.23 L369.87,226.35 Z" fill="#ddb2b7" stroke="#111111" stroke-width="0.8" vector-effect="non-scaling-stroke"><title>Grayson County: Beshear 36.07%, Cameron 63.91%, margin -27.84</title></path><path id="ky-21087" data-county="Green" d="M483.38,223.15 L492.16,217.45 L492.05,221.95 L504.70,230.09 L519.60,250.45 L516.33,253.31 L498.89,260.31 L486.36,258.46 L479.92,251.64 L478.63,237.44 L483.38,223.15 Z" fill="#d39497" stroke="#111111" stroke-width="0.8" vector-effect="non-scaling-stroke"><title>Green County: Beshear 29.63%, Cameron 70.35%, margin -40.72</title></path><path id="ky-21089" data-county="Greenup" d="M795.66,68.16 L795.68,68.14 L797.93,67.63 L801.78,68.11 L803.06,67.78 L806.09,66.06 L808.41,65.25 L811.91,64.47 L812.51,64.53 L813.66,65.08 L814.14,65.58 L814.26,65.81 L814.64,66.52 L814.79,67.58 L814.74,68.58 L814.37,70.00 L814.84,73.80 L816.75,81.79 L817.50,83.67 L818.41,84.74 L820.72,86.34 L821.21,86.57 L823.10,87.47 L824.33,87.85 L831.32,87.93 L832.05,88.13 L835.40,89.97 L836.13,90.63 L839.10,94.29 L839.11,94.30 L821.04,109.97 L801.88,107.01 L793.18,99.09 L779.55,94.51 L790.89,83.66 L795.66,68.16 Z" fill="#ece0e6" stroke="#111111" stroke-width="0.8" vector-effect="non-scaling-stroke"><title>Greenup County: Beshear 45.74%, Cameron 54.26%, margin -8.52</title></path><path id="ky-21091" data-county="Hancock" d="M344.74,185.61 L341.10,173.36 L326.26,162.73 L333.34,161.96 L335.35,160.83 L337.42,158.67 L340.87,155.94 L344.73,154.56 L345.71,154.56 L345.77,154.59 L348.12,155.74 L348.99,157.82 L351.07,161.53 L353.35,164.79 L354.55,166.01 L355.67,166.99 L356.62,167.17 L357.22,167.14 L358.32,166.60 L364.14,170.47 L364.73,173.15 L364.73,173.16 L362.05,179.06 L366.67,194.63 L344.74,185.61 Z" fill="#f1f1f8" stroke="#111111" stroke-width="0.8" vector-effect="non-scaling-stroke"><title>Hancock County: Beshear 49.41%, Cameron 50.59%, margin -1.18</title></path><path id="ky-21093" data-county="Hardin" d="M436.98,219.83 L429.08,205.90 L409.91,202.76 L424.65,178.34 L441.76,176.02 L445.50,169.20 L442.81,154.69 L448.41,153.76 L448.83,153.59 L449.18,154.14 L449.98,154.58 L459.90,160.92 L461.88,168.78 L473.82,176.81 L480.63,186.26 L457.38,208.73 L455.39,220.98 L436.98,219.83 Z" fill="#f2f3fa" stroke="#111111" stroke-width="0.8" vector-effect="non-scaling-stroke"><title>Hardin County: Beshear 49.70%, Cameron 50.30%, margin -0.60</title></path><path id="ky-21095" data-county="Harlan" d="M814.89,276.40 L814.89,276.40 L814.76,277.37 L814.76,277.43 L815.10,277.70 L815.34,278.31 L815.48,278.32 L815.64,278.35 L815.92,278.56 L816.16,278.79 L816.49,278.82 L816.44,278.98 L815.90,279.77 L815.83,279.88 L815.78,280.54 L815.92,280.76 L816.12,281.28 L816.16,281.33 L815.75,282.33 L815.57,282.56 L814.54,283.62 L814.34,283.75 L812.93,285.17 L809.83,288.28 L809.82,288.28 L802.50,290.08 L790.70,290.62 L787.47,294.15 L783.68,299.31 L783.73,301.02 L784.39,301.69 L784.38,301.71 L784.13,302.95 L783.12,303.87 L779.43,304.34 L775.59,304.54 L758.58,308.84 L757.29,309.39 L757.17,309.45 L744.54,313.17 L744.52,313.17 L738.49,296.23 L741.10,285.76 L768.42,277.02 L777.68,270.82 L778.92,271.28 L780.21,270.86 L780.30,271.68 L782.17,271.70 L783.08,272.83 L784.55,272.65 L784.82,273.21 L781.45,278.78 L806.53,271.48 L814.89,276.40 Z" fill="#daa8ac" stroke="#111111" stroke-width="0.8" vector-effect="non-scaling-stroke"><title>Harlan County: Beshear 33.96%, Cameron 66.04%, margin -32.08</title></path><path id="ky-21097" data-county="Harrison" d="M627.81,120.75 L628.04,119.19 L628.97,118.83 L627.68,115.87 L614.17,95.82 L623.81,89.90 L656.02,85.23 L655.31,88.93 L661.17,88.55 L658.57,95.22 L668.30,99.81 L657.36,110.23 L639.36,120.53 L627.81,120.75 Z" fill="#f1f0f7" stroke="#111111" stroke-width="0.8" vector-effect="non-scaling-stroke"><title>Harrison County: Beshear 49.09%, Cameron 50.91%, margin -1.82</title></path><path id="ky-21099" data-county="Hart" d="M436.98,219.83 L455.39,220.98 L483.38,223.15 L478.63,237.44 L479.92,251.64 L473.09,253.13 L473.05,253.14 L453.78,255.68 L435.93,253.45 L436.80,247.73 L423.91,233.42 L434.97,231.88 L434.04,228.02 L440.37,226.42 L436.98,219.83 Z" fill="#e1bec3" stroke="#111111" stroke-width="0.8" vector-effect="non-scaling-stroke"><title>Hart County: Beshear 38.62%, Cameron 61.38%, margin -22.76</title></path><path id="ky-21101" data-county="Henderson" d="M242.42,165.90 L243.40,166.09 L244.50,166.82 L244.93,168.03 L242.70,171.56 L242.67,172.69 L242.99,173.89 L243.98,174.83 L246.95,175.13 L250.58,174.41 L251.62,173.61 L253.42,171.47 L253.75,170.96 L253.78,170.03 L253.41,167.84 L252.75,167.22 L250.00,165.50 L249.28,164.40 L248.96,163.14 L252.24,157.69 L253.25,157.30 L254.08,157.35 L254.65,157.59 L255.41,158.26 L255.57,158.87 L255.46,159.80 L255.73,160.68 L257.24,162.62 L258.31,163.36 L262.93,165.56 L270.10,161.44 L270.19,161.39 L271.80,161.06 L273.98,161.00 L275.87,161.29 L278.53,162.09 L287.80,166.50 L285.29,175.92 L291.45,180.57 L275.17,192.05 L273.74,193.65 L271.62,193.55 L267.53,194.28 L264.85,196.34 L236.41,197.43 L233.90,186.80 L226.83,182.68 L213.48,166.08 L216.17,163.36 L216.97,163.05 L218.72,163.20 L220.00,163.82 L220.83,164.53 L221.82,166.24 L223.73,168.42 L224.99,169.11 L229.71,169.21 L230.57,168.96 L233.11,167.40 L240.47,166.22 L242.42,165.90 Z" fill="#c9cce8" stroke="#111111" stroke-width="0.8" vector-effect="non-scaling-stroke"><title>Henderson County: Beshear 55.77%, Cameron 44.22%, margin +11.55</title></path><path id="ky-21103" data-county="Henry" d="M576.94,112.01 L561.82,114.53 L527.88,111.86 L520.39,99.79 L524.20,95.86 L541.53,84.82 L552.67,83.47 L564.25,93.44 L565.91,102.43 L575.78,104.95 L576.94,112.01 Z" fill="#eadce2" stroke="#111111" stroke-width="0.8" vector-effect="non-scaling-stroke"><title>Henry County: Beshear 44.97%, Cameron 55.01%, margin -10.04</title></path><path id="ky-21105" data-county="Hickman" d="M107.74,332.44 L106.52,332.44 L106.48,332.44 L105.61,332.43 L105.58,332.43 L97.43,323.64 L82.78,321.82 L65.18,314.88 L65.51,312.26 L62.23,307.09 L62.05,305.93 L62.43,304.31 L64.01,302.62 L65.84,301.92 L69.03,302.41 L70.45,302.85 L71.26,298.86 L108.16,300.30 L107.74,332.44 Z" fill="#d8a4a8" stroke="#111111" stroke-width="0.8" vector-effect="non-scaling-stroke"><title>Hickman County: Beshear 33.03%, Cameron 66.97%, margin -33.94</title></path><path id="ky-21107" data-county="Hopkins" d="M242.82,255.58 L228.03,244.66 L222.59,235.03 L227.03,231.64 L253.17,218.40 L264.30,215.45 L279.14,205.56 L281.91,222.72 L288.56,226.74 L277.51,242.25 L284.06,254.64 L261.73,260.80 L242.82,255.58 Z" fill="#ebdfe5" stroke="#111111" stroke-width="0.8" vector-effect="non-scaling-stroke"><title>Hopkins County: Beshear 45.50%, Cameron 54.50%, margin -9.00</title></path><path id="ky-21109" data-county="Jackson" d="M706.00,231.87 L687.13,243.54 L664.04,235.31 L656.72,211.16 L669.69,206.00 L684.57,204.20 L691.66,208.78 L692.29,209.62 L693.10,210.18 L693.15,210.72 L693.67,211.24 L694.08,211.77 L706.00,231.87 Z" fill="#c97476" stroke="#111111" stroke-width="0.8" vector-effect="non-scaling-stroke"><title>Jackson County: Beshear 22.91%, Cameron 77.06%, margin -54.15</title></path><path id="ky-21111" data-county="Jefferson" d="M487.38,144.96 L477.94,144.14 L476.82,144.05 L461.40,148.31 L449.98,154.58 L449.18,154.14 L448.83,153.59 L449.61,153.26 L450.94,152.25 L451.87,151.02 L453.15,146.48 L453.80,144.18 L453.99,142.51 L453.92,141.22 L453.41,137.78 L453.49,135.27 L454.59,132.99 L454.81,132.52 L462.93,121.52 L463.60,121.07 L464.50,120.79 L467.42,120.12 L467.42,120.12 L468.68,120.13 L469.59,120.40 L470.47,121.08 L470.40,121.42 L471.05,122.02 L472.25,122.58 L472.98,122.66 L480.27,119.30 L481.28,118.60 L483.82,115.54 L485.59,111.45 L485.68,109.22 L505.87,120.51 L513.40,123.07 L511.12,136.90 L510.55,140.35 L495.28,145.65 L487.38,144.96 Z" fill="#646bb8" stroke="#111111" stroke-width="0.8" vector-effect="non-scaling-stroke"><title>Jefferson County: Beshear 70.04%, Cameron 29.95%, margin +40.09</title></path><path id="ky-21113" data-county="Jessamine" d="M595.20,176.38 L594.46,175.77 L594.42,174.29 L595.20,173.34 L597.74,172.81 L598.50,171.69 L596.03,170.84 L601.95,153.98 L623.45,161.55 L628.63,172.60 L617.94,181.84 L612.63,186.68 L600.08,175.09 L595.20,176.38 Z" fill="#ede5eb" stroke="#111111" stroke-width="0.8" vector-effect="non-scaling-stroke"><title>Jessamine County: Beshear 46.79%, Cameron 53.20%, margin -6.41</title></path><path id="ky-21115" data-county="Johnson" d="M806.38,188.16 L798.78,171.16 L800.64,158.71 L805.52,154.38 L845.42,168.78 L838.46,172.05 L842.05,187.70 L827.47,183.43 L806.38,188.16 Z" fill="#deb7bc" stroke="#111111" stroke-width="0.8" vector-effect="non-scaling-stroke"><title>Johnson County: Beshear 37.08%, Cameron 62.92%, margin -25.84</title></path><path id="ky-21117" data-county="Kenton" d="M619.79,24.40 L619.83,24.40 L620.26,24.23 L626.84,36.29 L625.34,53.12 L630.72,58.53 L630.48,58.64 L617.15,60.27 L609.36,60.36 L607.23,59.05 L609.33,49.85 L606.28,26.68 L606.71,26.80 L608.69,26.77 L619.79,24.40 Z" fill="#dee1f2" stroke="#111111" stroke-width="0.8" vector-effect="non-scaling-stroke"><title>Kenton County: Beshear 52.80%, Cameron 47.20%, margin +5.60</title></path><path id="ky-21119" data-county="Knott" d="M831.12,241.05 L820.81,241.38 L801.81,252.83 L799.32,250.06 L784.20,241.41 L784.55,225.18 L783.32,218.97 L791.93,210.76 L805.45,213.50 L805.97,213.71 L805.82,214.19 L806.27,214.32 L806.31,215.09 L807.14,214.59 L808.20,215.48 L826.96,222.47 L828.78,236.70 L833.72,239.40 L832.76,240.00 L832.08,239.91 L831.12,241.05 Z" fill="#d2d6ec" stroke="#111111" stroke-width="0.8" vector-effect="non-scaling-stroke"><title>Knott County: Beshear 54.45%, Cameron 45.55%, margin +8.90</title></path><path id="ky-21121" data-county="Knox" d="M729.24,278.58 L730.24,284.66 L704.42,298.87 L695.00,310.51 L685.37,305.76 L672.62,290.69 L669.52,278.56 L685.27,276.05 L695.74,266.80 L729.24,278.58 Z" fill="#daabaf" stroke="#111111" stroke-width="0.8" vector-effect="non-scaling-stroke"><title>Knox County: Beshear 34.54%, Cameron 65.46%, margin -30.92</title></path><path id="ky-21123" data-county="LaRue" d="M499.56,207.42 L506.10,217.97 L492.16,217.45 L483.38,223.15 L455.39,220.98 L457.38,208.73 L480.63,186.26 L491.14,190.87 L487.43,207.74 L499.56,207.42 Z" fill="#e1bec3" stroke="#111111" stroke-width="0.8" vector-effect="non-scaling-stroke"><title>LaRue County: Beshear 38.57%, Cameron 61.41%, margin -22.84</title></path><path id="ky-21125" data-county="Laurel" d="M695.74,266.80 L685.27,276.05 L669.52,278.56 L645.07,279.76 L639.31,280.52 L636.66,279.80 L637.87,278.15 L646.07,255.29 L650.27,244.85 L664.04,235.31 L687.13,243.54 L684.12,252.54 L695.74,266.80 Z" fill="#d69ca0" stroke="#111111" stroke-width="0.8" vector-effect="non-scaling-stroke"><title>Laurel County: Beshear 31.41%, Cameron 68.59%, margin -37.18</title></path><path id="ky-21127" data-county="Lawrence" d="M859.10,160.91 L859.10,160.93 L849.02,160.10 L845.42,168.78 L805.52,154.38 L800.64,158.71 L797.42,157.49 L796.70,153.59 L812.52,141.16 L808.27,133.61 L823.80,125.45 L846.39,125.03 L841.57,134.75 L842.56,138.04 L844.38,139.78 L846.58,140.36 L846.88,140.47 L853.16,147.17 L854.13,149.78 L856.44,153.41 L857.62,154.28 L860.24,154.63 L862.89,156.24 L863.05,156.52 L862.94,157.18 L859.10,160.91 Z" fill="#dfb8bd" stroke="#111111" stroke-width="0.8" vector-effect="non-scaling-stroke"><title>Lawrence County: Beshear 37.31%, Cameron 62.69%, margin -25.38</title></path><path id="ky-21129" data-county="Lee" d="M730.47,213.14 L724.38,209.42 L700.73,215.44 L694.08,211.77 L693.67,211.24 L693.15,210.72 L693.10,210.18 L692.29,209.62 L691.66,208.78 L701.35,194.53 L713.48,188.15 L714.65,187.70 L715.16,188.14 L737.23,197.41 L730.47,213.14 Z" fill="#ece3e9" stroke="#111111" stroke-width="0.8" vector-effect="non-scaling-stroke"><title>Lee County: Beshear 46.32%, Cameron 53.68%, margin -7.36</title></path><path id="ky-21131" data-county="Leslie" d="M738.95,245.28 L744.52,238.39 L757.51,238.17 L760.74,246.51 L775.33,252.62 L777.68,270.82 L768.42,277.02 L741.10,285.76 L739.84,285.75 L739.31,284.75 L741.14,283.87 L740.57,282.88 L738.76,282.44 L738.80,280.64 L733.79,253.41 L738.95,245.28 Z" fill="#d4979b" stroke="#111111" stroke-width="0.8" vector-effect="non-scaling-stroke"><title>Leslie County: Beshear 30.36%, Cameron 69.64%, margin -39.28</title></path><path id="ky-21133" data-county="Letcher" d="M851.01,250.01 L843.93,253.95 L832.39,260.76 L832.55,263.60 L832.33,267.96 L826.47,271.46 L825.80,271.51 L824.43,272.36 L824.41,272.38 L824.25,272.46 L824.20,272.52 L823.05,272.38 L821.24,272.47 L820.97,272.59 L819.48,273.21 L819.65,273.62 L819.45,274.11 L819.09,274.28 L818.83,274.65 L818.53,274.87 L818.35,274.86 L817.00,275.17 L816.86,275.11 L815.63,275.71 L815.40,275.82 L815.26,275.91 L815.18,275.94 L815.08,276.00 L814.97,276.12 L814.89,276.40 L806.53,271.48 L781.45,278.78 L784.82,273.21 L792.84,270.95 L792.34,258.57 L799.32,250.06 L801.81,252.83 L820.81,241.38 L831.12,241.05 L851.01,250.01 Z" fill="#e2e4f3" stroke="#111111" stroke-width="0.8" vector-effect="non-scaling-stroke"><title>Letcher County: Beshear 52.33%, Cameron 47.67%, margin +4.66</title></path><path id="ky-21135" data-county="Lewis" d="M722.88,77.95 L723.69,74.70 L724.79,73.65 L726.12,73.09 L731.00,72.07 L735.92,70.95 L737.39,70.84 L738.39,71.00 L755.45,76.04 L759.70,78.15 L760.79,79.13 L761.22,80.39 L765.79,82.74 L767.73,82.46 L780.68,80.65 L782.35,80.11 L783.28,79.32 L784.16,78.04 L795.66,68.16 L790.89,83.66 L779.55,94.51 L771.13,103.75 L771.91,114.09 L758.75,116.44 L745.49,109.03 L730.38,103.31 L723.02,91.96 L722.44,78.63 L722.88,77.95 Z" fill="#d69da1" stroke="#111111" stroke-width="0.8" vector-effect="non-scaling-stroke"><title>Lewis County: Beshear 31.64%, Cameron 68.36%, margin -36.72</title></path><path id="ky-21137" data-county="Lincoln" d="M603.38,238.80 L594.75,244.99 L594.49,230.52 L579.28,222.54 L579.69,208.18 L585.19,205.70 L602.17,197.89 L627.32,215.56 L620.64,234.23 L614.27,231.03 L603.38,238.80 Z" fill="#dfbabf" stroke="#111111" stroke-width="0.8" vector-effect="non-scaling-stroke"><title>Lincoln County: Beshear 37.82%, Cameron 62.18%, margin -24.36</title></path><path id="ky-21139" data-county="Livingston" d="M147.43,270.64 L137.77,264.00 L138.26,264.29 L140.00,265.00 L141.65,265.34 L143.69,265.57 L146.55,265.40 L147.44,265.35 L150.28,264.55 L151.99,261.60 L154.39,255.20 L151.61,249.13 L150.30,247.94 L148.76,247.15 L144.29,242.16 L143.50,239.55 L143.66,238.73 L148.18,227.33 L148.94,226.21 L150.63,224.76 L152.61,223.82 L155.52,222.98 L156.24,222.77 L162.23,225.19 L178.81,240.85 L181.84,255.82 L177.37,263.63 L179.97,273.33 L176.27,275.48 L161.38,265.70 L147.43,270.64 Z" fill="#deb5b9" stroke="#111111" stroke-width="0.8" vector-effect="non-scaling-stroke"><title>Livingston County: Beshear 36.62%, Cameron 63.38%, margin -26.76</title></path><path id="ky-21141" data-county="Logan" d="M351.89,315.07 L345.97,315.22 L345.60,315.21 L345.34,315.22 L343.58,315.27 L341.07,315.31 L334.92,315.38 L334.85,315.39 L316.51,315.72 L317.42,266.07 L326.55,264.58 L330.71,265.12 L342.13,266.61 L362.45,273.35 L369.93,287.23 L360.52,291.84 L351.89,315.07 Z" fill="#dfb8bd" stroke="#111111" stroke-width="0.8" vector-effect="non-scaling-stroke"><title>Logan County: Beshear 37.35%, Cameron 62.60%, margin -25.25</title></path><path id="ky-21143" data-county="Lyon" d="M193.46,251.96 L199.84,252.55 L219.47,278.07 L186.14,289.12 L176.27,275.48 L179.97,273.33 L177.37,263.63 L181.84,255.82 L193.46,251.96 Z" fill="#e7d3d9" stroke="#111111" stroke-width="0.8" vector-effect="non-scaling-stroke"><title>Lyon County: Beshear 42.99%, Cameron 57.01%, margin -14.02</title></path><path id="ky-21151" data-county="Madison" d="M639.08,209.23 L617.94,181.84 L628.63,172.60 L640.32,167.27 L670.88,171.90 L669.69,206.00 L656.72,211.16 L639.08,209.23 Z" fill="#e6e8f5" stroke="#111111" stroke-width="0.8" vector-effect="non-scaling-stroke"><title>Madison County: Beshear 51.72%, Cameron 48.28%, margin +3.44</title></path><path id="ky-21153" data-county="Magoffin" d="M808.20,215.48 L807.14,214.59 L806.31,215.09 L806.27,214.32 L805.82,214.19 L805.97,213.71 L805.45,213.50 L788.66,198.16 L783.29,201.18 L769.76,193.71 L768.60,192.49 L770.37,190.20 L768.16,188.59 L767.27,182.25 L785.87,170.59 L798.78,171.16 L806.38,188.16 L813.75,209.11 L808.20,215.48 Z" fill="#eff1fa" stroke="#111111" stroke-width="0.8" vector-effect="non-scaling-stroke"><title>Magoffin County: Beshear 50.38%, Cameron 49.62%, margin +0.76</title></path><path id="ky-21155" data-county="Marion" d="M552.77,224.14 L541.16,218.03 L532.20,223.37 L521.06,217.50 L506.10,217.97 L499.56,207.42 L507.98,191.77 L513.77,186.45 L517.11,193.27 L530.95,198.31 L557.95,198.27 L556.82,208.50 L552.77,224.14 Z" fill="#e3e5f4" stroke="#111111" stroke-width="0.8" vector-effect="non-scaling-stroke"><title>Marion County: Beshear 52.14%, Cameron 47.84%, margin +4.30</title></path><path id="ky-21157" data-county="Marshall" d="M147.10,303.01 L147.29,280.21 L147.15,273.19 L147.43,270.64 L161.38,265.70 L176.27,275.48 L186.14,289.12 L191.67,303.39 L147.10,303.01 Z" fill="#e3c4ca" stroke="#111111" stroke-width="0.8" vector-effect="non-scaling-stroke"><title>Marshall County: Beshear 39.94%, Cameron 60.05%, margin -20.11</title></path><path id="ky-21159" data-county="Martin" d="M859.10,160.93 L858.74,161.98 L861.79,165.08 L868.57,169.81 L870.64,172.05 L879.01,181.07 L880.30,183.10 L879.42,185.25 L864.00,193.81 L851.22,191.90 L842.05,187.70 L838.46,172.05 L845.42,168.78 L849.02,160.10 L859.10,160.93 Z" fill="#d39598" stroke="#111111" stroke-width="0.8" vector-effect="non-scaling-stroke"><title>Martin County: Beshear 29.81%, Cameron 70.19%, margin -40.38</title></path><path id="ky-21161" data-county="Mason" d="M715.39,78.68 L718.54,79.52 L720.40,79.77 L721.41,79.56 L722.08,79.20 L722.44,78.63 L723.02,91.96 L697.17,100.17 L688.72,95.90 L681.43,83.84 L691.86,63.10 L695.84,63.88 L697.20,64.45 L697.88,64.95 L706.85,74.24 L707.34,75.80 L707.86,76.53 L708.68,76.90 L715.39,78.68 Z" fill="#ede4eb" stroke="#111111" stroke-width="0.8" vector-effect="non-scaling-stroke"><title>Mason County: Beshear 46.68%, Cameron 53.30%, margin -6.62</title></path><path id="ky-21145" data-county="McCracken" d="M108.20,279.64 L107.83,278.78 L93.87,246.57 L93.87,246.57 L92.83,246.12 L94.51,246.42 L95.83,246.66 L108.64,250.83 L130.43,259.12 L134.79,261.48 L136.28,263.12 L137.77,264.00 L147.43,270.64 L147.15,273.19 L147.29,280.21 L108.20,279.64 Z" fill="#eee6ed" stroke="#111111" stroke-width="0.8" vector-effect="non-scaling-stroke"><title>McCracken County: Beshear 47.06%, Cameron 52.94%, margin -5.88</title></path><path id="ky-21147" data-county="McCreary" d="M653.41,321.87 L649.36,321.84 L587.88,320.50 L600.30,304.29 L611.55,295.39 L611.70,289.12 L637.87,278.15 L636.66,279.80 L639.31,280.52 L645.07,279.76 L638.82,299.40 L643.86,311.75 L653.41,321.87 Z" fill="#d18d90" stroke="#111111" stroke-width="0.8" vector-effect="non-scaling-stroke"><title>McCreary County: Beshear 28.21%, Cameron 71.76%, margin -43.55</title></path><path id="ky-21149" data-county="McLean" d="M319.20,206.65 L317.87,207.71 L311.49,216.15 L311.88,223.86 L288.56,226.74 L281.91,222.72 L279.14,205.56 L264.85,196.34 L267.53,194.28 L271.62,193.55 L273.74,193.65 L275.17,192.05 L292.64,199.37 L319.20,206.65 Z" fill="#e5ccd2" stroke="#111111" stroke-width="0.8" vector-effect="non-scaling-stroke"><title>McLean County: Beshear 41.59%, Cameron 58.41%, margin -16.82</title></path><path id="ky-21163" data-county="Meade" d="M424.65,178.34 L413.78,169.05 L384.28,148.98 L384.28,148.98 L387.13,148.89 L388.88,148.43 L390.54,147.24 L391.18,146.44 L391.51,145.08 L391.93,144.71 L395.24,141.80 L403.10,138.96 L403.79,138.43 L404.18,137.90 L405.27,137.47 L405.82,137.26 L408.88,137.41 L410.39,138.96 L409.58,142.25 L409.50,143.81 L410.11,146.41 L410.91,147.64 L416.44,151.11 L421.36,153.08 L422.17,153.25 L439.13,155.30 L442.81,154.69 L445.50,169.20 L441.76,176.02 L424.65,178.34 Z" fill="#e8d4d9" stroke="#111111" stroke-width="0.8" vector-effect="non-scaling-stroke"><title>Meade County: Beshear 43.13%, Cameron 56.83%, margin -13.70</title></path><path id="ky-21165" data-county="Menifee" d="M714.98,153.32 L730.31,153.04 L740.02,148.41 L747.74,150.39 L740.47,170.85 L724.30,175.19 L707.93,164.13 L709.04,154.58 L709.33,155.31 L709.94,154.77 L710.21,154.82 L710.76,154.24 L710.46,153.96 L710.86,153.61 L711.29,153.58 L711.63,153.24 L711.84,153.59 L712.15,153.52 L712.42,153.18 L712.88,153.40 L712.88,153.60 L713.47,153.71 L713.91,154.03 L714.30,153.91 L714.66,153.28 L714.98,153.32 Z" fill="#ece1e7" stroke="#111111" stroke-width="0.8" vector-effect="non-scaling-stroke"><title>Menifee County: Beshear 45.88%, Cameron 54.07%, margin -8.19</title></path><path id="ky-21167" data-county="Mercer" d="M596.03,170.84 L598.50,171.69 L597.74,172.81 L595.20,173.34 L594.42,174.29 L594.46,175.77 L595.20,176.38 L597.60,187.38 L591.87,188.54 L558.56,192.61 L561.48,171.71 L557.91,167.33 L568.94,160.04 L585.76,157.99 L583.08,160.87 L596.03,170.84 Z" fill="#e9d9df" stroke="#111111" stroke-width="0.8" vector-effect="non-scaling-stroke"><title>Mercer County: Beshear 44.26%, Cameron 55.72%, margin -11.46</title></path><path id="ky-21169" data-county="Metcalfe" d="M473.05,253.14 L473.09,253.13 L479.92,251.64 L486.36,258.46 L498.89,260.31 L507.82,280.68 L490.65,294.96 L473.64,292.17 L473.05,253.14 Z" fill="#e4c9cf" stroke="#111111" stroke-width="0.8" vector-effect="non-scaling-stroke"><title>Metcalfe County: Beshear 40.99%, Cameron 59.01%, margin -18.02</title></path><path id="ky-21171" data-county="Monroe" d="M467.78,318.29 L467.77,318.29 L445.45,317.51 L445.39,306.29 L473.64,292.17 L490.65,294.96 L509.65,318.72 L505.50,318.94 L501.07,319.10 L495.97,319.02 L495.91,319.01 L467.78,318.29 Z" fill="#cc7f82" stroke="#111111" stroke-width="0.8" vector-effect="non-scaling-stroke"><title>Monroe County: Beshear 25.27%, Cameron 74.73%, margin -49.46</title></path><path id="ky-21173" data-county="Montgomery" d="M683.06,131.59 L694.54,138.20 L709.04,154.58 L707.93,164.13 L684.44,162.66 L674.37,146.05 L670.86,140.74 L683.06,131.59 Z" fill="#f1f1f8" stroke="#111111" stroke-width="0.8" vector-effect="non-scaling-stroke"><title>Montgomery County: Beshear 49.31%, Cameron 50.69%, margin -1.38</title></path><path id="ky-21175" data-county="Morgan" d="M796.70,153.59 L797.42,157.49 L800.64,158.71 L798.78,171.16 L785.87,170.59 L767.27,182.25 L768.16,188.59 L740.47,170.85 L747.74,150.39 L768.03,140.71 L776.21,153.16 L796.70,153.59 Z" fill="#eee7ed" stroke="#111111" stroke-width="0.8" vector-effect="non-scaling-stroke"><title>Morgan County: Beshear 47.18%, Cameron 52.79%, margin -5.61</title></path><path id="ky-21177" data-county="Muhlenberg" d="M311.88,223.86 L335.72,248.08 L336.36,262.81 L330.71,265.12 L326.55,264.58 L317.42,266.07 L293.99,268.50 L292.91,264.72 L284.06,254.64 L277.51,242.25 L288.56,226.74 L311.88,223.86 Z" fill="#ede3ea" stroke="#111111" stroke-width="0.8" vector-effect="non-scaling-stroke"><title>Muhlenberg County: Beshear 46.45%, Cameron 53.55%, margin -7.10</title></path><path id="ky-21179" data-county="Nelson" d="M543.37,166.60 L525.98,174.50 L513.77,186.45 L507.98,191.77 L499.56,207.42 L487.43,207.74 L491.14,190.87 L480.63,186.26 L473.82,176.81 L484.10,174.76 L503.37,155.54 L514.00,161.57 L541.58,157.78 L543.37,166.60 Z" fill="#eef0f9" stroke="#111111" stroke-width="0.8" vector-effect="non-scaling-stroke"><title>Nelson County: Beshear 50.63%, Cameron 49.37%, margin +1.26</title></path><path id="ky-21181" data-county="Nicholas" d="M682.81,102.21 L698.47,119.12 L698.23,119.21 L683.06,131.59 L666.15,121.67 L657.36,110.23 L668.30,99.81 L682.81,102.21 Z" fill="#c7cbe7" stroke="#111111" stroke-width="0.8" vector-effect="non-scaling-stroke"><title>Nicholas County: Beshear 56.01%, Cameron 43.99%, margin +12.02</title></path><path id="ky-21183" data-county="Ohio" d="M369.14,226.80 L352.34,237.17 L345.48,234.37 L335.72,248.08 L311.88,223.86 L311.49,216.15 L317.87,207.71 L319.20,206.65 L329.84,198.36 L345.44,193.21 L344.74,185.61 L366.67,194.63 L372.16,206.23 L363.69,208.40 L369.87,226.35 L369.14,226.80 Z" fill="#e2c1c6" stroke="#111111" stroke-width="0.8" vector-effect="non-scaling-stroke"><title>Ohio County: Beshear 39.24%, Cameron 60.76%, margin -21.52</title></path><path id="ky-21185" data-county="Oldham" d="M505.87,120.51 L485.68,109.22 L485.68,109.21 L486.28,107.39 L487.76,104.12 L489.29,102.20 L506.55,93.48 L510.04,92.14 L510.07,92.12 L524.20,95.86 L520.39,99.79 L527.88,111.86 L522.96,117.56 L505.87,120.51 Z" fill="#f1f2f9" stroke="#111111" stroke-width="0.8" vector-effect="non-scaling-stroke"><title>Oldham County: Beshear 49.57%, Cameron 50.43%, margin -0.86</title></path><path id="ky-21187" data-county="Owen" d="M592.38,112.53 L576.94,112.01 L575.78,104.95 L565.91,102.43 L564.25,93.44 L552.67,83.47 L569.32,75.70 L587.01,68.77 L588.37,80.88 L611.41,98.19 L592.38,112.53 Z" fill="#e4c7cd" stroke="#111111" stroke-width="0.8" vector-effect="non-scaling-stroke"><title>Owen County: Beshear 40.55%, Cameron 59.45%, margin -18.90</title></path><path id="ky-21189" data-county="Owsley" d="M736.69,242.59 L721.58,230.75 L706.00,231.87 L694.08,211.77 L700.73,215.44 L724.38,209.42 L730.47,213.14 L734.22,233.57 L736.69,242.59 Z" fill="#e4c9ce" stroke="#111111" stroke-width="0.8" vector-effect="non-scaling-stroke"><title>Owsley County: Beshear 40.84%, Cameron 59.16%, margin -18.32</title></path><path id="ky-21191" data-county="Pendleton" d="M652.80,50.44 L652.65,52.94 L652.93,55.68 L653.10,56.02 L656.02,85.23 L623.81,89.90 L617.15,60.27 L630.48,58.64 L630.72,58.53 L652.80,50.44 Z" fill="#e0bcc1" stroke="#111111" stroke-width="0.8" vector-effect="non-scaling-stroke"><title>Pendleton County: Beshear 38.20%, Cameron 61.80%, margin -23.60</title></path><path id="ky-21193" data-county="Perry" d="M784.82,273.21 L784.55,272.65 L783.08,272.83 L782.17,271.70 L780.30,271.68 L780.21,270.86 L778.92,271.28 L777.68,270.82 L775.33,252.62 L760.74,246.51 L757.51,238.17 L744.52,238.39 L738.95,245.28 L738.55,243.00 L736.69,242.59 L734.22,233.57 L745.89,228.28 L753.96,233.11 L773.80,220.59 L784.55,225.18 L784.20,241.41 L799.32,250.06 L792.34,258.57 L792.84,270.95 L784.82,273.21 Z" fill="#c9cce8" stroke="#111111" stroke-width="0.8" vector-effect="non-scaling-stroke"><title>Perry County: Beshear 55.79%, Cameron 44.21%, margin +11.58</title></path><path id="ky-21195" data-county="Pike" d="M879.42,185.25 L879.50,185.84 L881.70,189.19 L882.92,191.61 L888.47,195.12 L892.11,196.87 L901.37,202.58 L903.30,204.48 L903.26,205.08 L904.37,206.79 L912.46,210.18 L917.25,209.91 L918.25,208.82 L918.45,208.76 L922.00,209.38 L883.52,236.27 L881.86,237.53 L881.28,237.97 L876.50,241.57 L857.49,247.40 L852.42,249.44 L851.01,250.01 L851.01,250.01 L831.12,241.05 L832.08,239.91 L832.76,240.00 L833.72,239.40 L838.29,236.84 L848.71,217.85 L844.14,213.46 L851.22,191.90 L864.00,193.81 L879.42,185.25 Z" fill="#ebdfe5" stroke="#111111" stroke-width="0.8" vector-effect="non-scaling-stroke"><title>Pike County: Beshear 45.46%, Cameron 54.54%, margin -9.08</title></path><path id="ky-21197" data-county="Powell" d="M713.48,188.15 L691.58,183.04 L680.20,173.74 L684.44,162.66 L707.93,164.13 L724.30,175.19 L715.16,188.14 L714.65,187.70 L713.48,188.15 Z" fill="#f2f4fb" stroke="#111111" stroke-width="0.8" vector-effect="non-scaling-stroke"><title>Powell County: Beshear 50.02%, Cameron 49.98%, margin +0.04</title></path><path id="ky-21199" data-county="Pulaski" d="M594.75,244.99 L603.38,238.80 L614.27,231.03 L620.64,234.23 L646.07,255.29 L637.87,278.15 L611.70,289.12 L599.69,275.60 L588.87,278.35 L581.07,273.61 L572.74,267.72 L573.30,259.50 L584.21,252.52 L594.75,244.99 Z" fill="#d7a0a4" stroke="#111111" stroke-width="0.8" vector-effect="non-scaling-stroke"><title>Pulaski County: Beshear 32.15%, Cameron 67.85%, margin -35.70</title></path><path id="ky-21201" data-county="Robertson" d="M688.72,95.90 L684.00,99.26 L682.81,102.21 L668.30,99.81 L658.57,95.22 L661.17,88.55 L681.43,83.84 L688.72,95.90 Z" fill="#e9d8de" stroke="#111111" stroke-width="0.8" vector-effect="non-scaling-stroke"><title>Robertson County: Beshear 44.17%, Cameron 55.83%, margin -11.66</title></path><path id="ky-21203" data-county="Rockcastle" d="M620.64,234.23 L627.32,215.56 L635.92,217.13 L639.08,209.23 L656.72,211.16 L664.04,235.31 L650.27,244.85 L646.07,255.29 L620.64,234.23 Z" fill="#d29195" stroke="#111111" stroke-width="0.8" vector-effect="non-scaling-stroke"><title>Rockcastle County: Beshear 29.11%, Cameron 70.89%, margin -41.78</title></path><path id="ky-21205" data-county="Rowan" d="M747.74,150.39 L740.02,148.41 L723.81,132.13 L739.03,122.39 L745.49,109.03 L758.75,116.44 L762.87,127.65 L770.29,131.56 L768.03,140.71 L747.74,150.39 Z" fill="#a6aad7" stroke="#111111" stroke-width="0.8" vector-effect="non-scaling-stroke"><title>Rowan County: Beshear 60.75%, Cameron 39.25%, margin +21.50</title></path><path id="ky-21207" data-county="Russell" d="M556.39,251.21 L566.96,261.17 L573.30,259.50 L572.74,267.72 L581.07,273.61 L553.89,290.12 L547.46,293.86 L535.93,290.63 L528.85,285.47 L533.95,282.24 L537.07,273.70 L556.39,251.21 Z" fill="#d49699" stroke="#111111" stroke-width="0.8" vector-effect="non-scaling-stroke"><title>Russell County: Beshear 30.03%, Cameron 69.97%, margin -39.94</title></path><path id="ky-21209" data-county="Scott" d="M594.22,131.19 L593.61,129.66 L592.49,114.24 L592.38,112.53 L611.41,98.19 L613.77,95.89 L614.17,95.82 L627.68,115.87 L628.97,118.83 L628.04,119.19 L627.81,120.75 L632.66,129.71 L606.64,139.03 L606.12,140.59 L594.22,131.19 Z" fill="#d2d5ec" stroke="#111111" stroke-width="0.8" vector-effect="non-scaling-stroke"><title>Scott County: Beshear 54.58%, Cameron 45.42%, margin +9.16</title></path><path id="ky-21211" data-county="Shelby" d="M511.12,136.90 L513.40,123.07 L505.87,120.51 L522.96,117.56 L527.88,111.86 L561.82,114.53 L558.72,139.09 L549.45,150.00 L533.91,143.80 L511.12,136.90 Z" fill="#eee9ef" stroke="#111111" stroke-width="0.8" vector-effect="non-scaling-stroke"><title>Shelby County: Beshear 47.58%, Cameron 52.40%, margin -4.82</title></path><path id="ky-21213" data-county="Simpson" d="M386.94,314.72 L386.50,314.73 L386.35,314.74 L386.34,314.74 L375.57,316.91 L375.55,316.90 L370.70,314.69 L370.54,314.69 L352.41,315.06 L351.89,315.07 L360.52,291.84 L369.93,287.23 L373.29,293.51 L395.02,296.25 L394.40,299.94 L393.73,314.88 L386.94,314.72 Z" fill="#e5cad0" stroke="#111111" stroke-width="0.8" vector-effect="non-scaling-stroke"><title>Simpson County: Beshear 41.21%, Cameron 58.79%, margin -17.58</title></path><path id="ky-21215" data-county="Spencer" d="M503.37,155.54 L510.55,140.35 L511.12,136.90 L533.91,143.80 L549.45,150.00 L541.58,157.78 L514.00,161.57 L503.37,155.54 Z" fill="#deb7bb" stroke="#111111" stroke-width="0.8" vector-effect="non-scaling-stroke"><title>Spencer County: Beshear 37.04%, Cameron 62.96%, margin -25.92</title></path><path id="ky-21217" data-county="Taylor" d="M506.10,217.97 L521.06,217.50 L532.20,223.37 L541.16,218.03 L552.77,224.14 L541.90,236.42 L524.13,244.70 L519.60,250.45 L504.70,230.09 L492.05,221.95 L492.16,217.45 L506.10,217.97 Z" fill="#e4c9ce" stroke="#111111" stroke-width="0.8" vector-effect="non-scaling-stroke"><title>Taylor County: Beshear 40.80%, Cameron 59.20%, margin -18.40</title></path><path id="ky-21219" data-county="Todd" d="M310.07,315.84 L296.34,315.90 L296.28,315.91 L294.30,315.91 L290.64,315.93 L290.27,315.92 L283.80,315.95 L292.91,264.72 L293.99,268.50 L317.42,266.07 L316.51,315.72 L310.07,315.84 L310.07,315.84 Z" fill="#daa9ad" stroke="#111111" stroke-width="0.8" vector-effect="non-scaling-stroke"><title>Todd County: Beshear 34.07%, Cameron 65.85%, margin -31.78</title></path><path id="ky-21221" data-county="Trigg" d="M241.21,316.51 L222.30,316.93 L222.73,313.31 L203.45,311.73 L196.46,311.60 L194.83,307.43 L191.67,303.39 L186.14,289.12 L219.47,278.07 L236.55,273.08 L245.31,277.32 L241.21,316.51 Z" fill="#deb7bc" stroke="#111111" stroke-width="0.8" vector-effect="non-scaling-stroke"><title>Trigg County: Beshear 37.16%, Cameron 62.84%, margin -25.68</title></path><path id="ky-21223" data-county="Trimble" d="M541.53,84.82 L524.20,95.86 L510.07,92.12 L511.24,91.23 L511.92,90.13 L512.13,89.47 L512.10,87.42 L510.71,84.67 L509.30,81.86 L507.21,72.49 L507.78,70.09 L509.93,67.70 L511.36,67.06 L512.68,66.79 L521.91,66.39 L541.53,84.82 Z" fill="#e9d8de" stroke="#111111" stroke-width="0.8" vector-effect="non-scaling-stroke"><title>Trimble County: Beshear 44.09%, Cameron 55.91%, margin -11.82</title></path><path id="ky-21225" data-county="Union" d="M188.99,205.05 L188.99,205.05 L188.21,203.60 L186.20,198.09 L185.80,195.14 L186.04,194.31 L186.82,193.06 L190.29,188.95 L196.22,186.14 L197.76,185.03 L198.79,183.84 L199.50,182.68 L200.21,181.13 L201.52,178.30 L202.79,177.98 L204.29,178.19 L207.66,179.64 L208.31,180.18 L211.54,180.96 L215.93,177.30 L216.29,176.10 L215.81,173.74 L215.52,173.05 L214.97,172.31 L213.49,171.23 L212.43,170.13 L211.98,169.29 L211.88,168.30 L211.97,167.79 L212.36,167.20 L213.48,166.08 L226.83,182.68 L233.90,186.80 L236.41,197.43 L214.54,214.72 L212.82,216.25 L203.00,208.26 L197.56,213.24 L197.32,212.00 L196.26,210.45 L190.40,205.77 L189.01,205.06 L189.00,205.06 L188.99,205.05 Z" fill="#eadce2" stroke="#111111" stroke-width="0.8" vector-effect="non-scaling-stroke"><title>Union County: Beshear 44.97%, Cameron 55.03%, margin -10.06</title></path><path id="ky-21227" data-county="Warren" d="M395.18,253.13 L409.14,263.74 L416.65,260.96 L429.15,266.07 L422.82,281.17 L394.40,299.94 L395.02,296.25 L373.29,293.51 L369.93,287.23 L362.45,273.35 L369.14,251.46 L395.18,253.13 Z" fill="#e3e5f4" stroke="#111111" stroke-width="0.8" vector-effect="non-scaling-stroke"><title>Warren County: Beshear 52.12%, Cameron 47.87%, margin +4.25</title></path><path id="ky-21229" data-county="Washington" d="M513.77,186.45 L525.98,174.50 L543.37,166.60 L557.91,167.33 L561.48,171.71 L558.56,192.61 L557.95,198.27 L530.95,198.31 L517.11,193.27 L513.77,186.45 Z" fill="#e7d3d9" stroke="#111111" stroke-width="0.8" vector-effect="non-scaling-stroke"><title>Washington County: Beshear 43.02%, Cameron 56.96%, margin -13.94</title></path><path id="ky-21231" data-county="Wayne" d="M587.06,320.48 L587.05,320.48 L578.21,320.12 L578.22,320.11 L564.52,319.18 L561.05,302.31 L553.89,290.12 L581.07,273.61 L588.87,278.35 L599.69,275.60 L611.70,289.12 L611.55,295.39 L600.30,304.29 L587.88,320.50 L587.06,320.48 Z" fill="#dfbabf" stroke="#111111" stroke-width="0.8" vector-effect="non-scaling-stroke"><title>Wayne County: Beshear 37.81%, Cameron 62.19%, margin -24.38</title></path><path id="ky-21233" data-county="Webster" d="M227.03,231.64 L225.30,231.27 L226.25,229.81 L227.26,230.04 L228.50,228.21 L216.38,225.98 L212.82,216.25 L214.54,214.72 L236.41,197.43 L264.85,196.34 L279.14,205.56 L264.30,215.45 L253.17,218.40 L227.03,231.64 Z" fill="#e5cbd0" stroke="#111111" stroke-width="0.8" vector-effect="non-scaling-stroke"><title>Webster County: Beshear 41.32%, Cameron 58.68%, margin -17.36</title></path><path id="ky-21235" data-county="Whitley" d="M688.68,322.28 L681.91,322.12 L681.88,322.12 L653.41,321.87 L643.86,311.75 L638.82,299.40 L645.07,279.76 L669.52,278.56 L672.62,290.69 L685.37,305.76 L695.00,310.51 L685.52,315.87 L688.68,322.28 Z" fill="#d8a2a6" stroke="#111111" stroke-width="0.8" vector-effect="non-scaling-stroke"><title>Whitley County: Beshear 32.74%, Cameron 67.26%, margin -34.52</title></path><path id="ky-21237" data-county="Wolfe" d="M715.16,188.14 L724.30,175.19 L740.47,170.85 L768.16,188.59 L770.37,190.20 L768.60,192.49 L769.76,193.71 L749.58,191.20 L737.23,197.41 L715.16,188.14 Z" fill="#bfc2e3" stroke="#111111" stroke-width="0.8" vector-effect="non-scaling-stroke"><title>Wolfe County: Beshear 57.26%, Cameron 42.74%, margin +14.52</title></path><path id="ky-21239" data-county="Woodford" d="M606.12,140.59 L602.26,152.31 L601.95,153.98 L596.03,170.84 L583.08,160.87 L585.76,157.99 L577.60,140.53 L594.22,131.19 L606.12,140.59 Z" fill="#b1b5dc" stroke="#111111" stroke-width="0.8" vector-effect="non-scaling-stroke"><title>Woodford County: Beshear 59.25%, Cameron 40.75%, margin +18.50</title></path>
  </g>
</svg>
