<svg xmlns="http://www.w3.org/2000/svg" viewBox="0 0 1400 220">
<defs>
<linearGradient id="sky" x1="0" y1="0" x2="1" y2="0">
<stop offset="0" stop-color="#152b4f"/>
<stop offset="0.52" stop-color="#245789"/>
<stop offset="1" stop-color="#7d1f2d"/>
</linearGradient>
<pattern id="bars" width="70" height="70" patternUnits="userSpaceOnUse" patternTransform="rotate(28)">
<rect width="70" height="70" fill="none"/>
<rect width="16" height="70" fill="rgba(255,255,255,0.08)"/>
</pattern>
</defs>
<rect width="1400" height="220" fill="url(#sky)"/>
<rect width="1400" height="220" fill="url(#bars)"/>
<path d="M0 174 C170 150 290 186 430 162 C590 135 685 174 845 145 C1035 110 1150 165 1400 126 L1400 220 L0 220 Z" fill="#0f5132" opacity="0.45"/>
<path d="M0 195 C180 174 300 201 450 178 C620 152 740 194 900 168 C1075 139 1210 179 1400 154 L1400 220 L0 220 Z" fill="#f2c14e" opacity="0.5"/>
<text x="48" y="83" font-family="Georgia, 'Times New Roman', serif" font-size="42" font-weight="700" fill="#ffffff">THE KENTUCKY TRAIL</text>
<text x="50" y="124" font-family="Arial, Helvetica, sans-serif" font-size="24" fill="#f9fafb">2023 Governor: Beshear vs. Cameron</text>
<text x="50" y="164" font-family="Arial, Helvetica, sans-serif" font-size="18" fill="#e5e7eb">County returns, disaster recovery, abortion exceptions, schools, coalfields, and split-ticket Kentucky politics.</text>
<g transform="translate(1160 48)">
<rect x="0" y="0" width="168" height="104" rx="0" fill="rgba(255,255,255,0.16)" stroke="#f2c14e" stroke-width="3"/>
<text x="84" y="44" text-anchor="middle" font-family="Arial, Helvetica, sans-serif" font-size="30" font-weight="700" fill="#ffffff">KY</text>
<text x="84" y="73" text-anchor="middle" font-family="Arial, Helvetica, sans-serif" font-size="15" fill="#f9fafb">UNITED WE STAND</text>
</g>
</svg>